<svg xmlns="http://www.w3.org/2000/svg" viewBox="0 0 800 2500">
  <defs>
    <!-- Définition du dégradé linéaire -->
    <linearGradient id="linear-gradient" x1="0.15" y1="0" x2="1" y2="0">
      <stop offset="0" stop-color="#ff8989"/>
      <stop offset="0.5" stop-color="#fdc888"/>
      <stop offset="1" stop-color="#a54cfd"/>
    </linearGradient>
    <!-- Filtre pour ajouter un effet de texture -->
    <filter id="noiseTexture" x="0%" y="0%" width="100%" height="100%">
      <feTurbulence type="fractalNoise" baseFrequency="0.01" numOctaves="2" stitchTiles="stitch"/>
      <feComposite in="SourceGraphic" operator="in"/>
    </filter>
  </defs>

  <!-- Chemin sinueux avec des boucles, croisements et virages -->
  <g filter="url(#noiseTexture)">
    <path d="
      M100,100 
      C200,200 300,50 400,150 
      S500,250 600,100 
      C700,50 750,200 650,300 
      S550,450 700,500 
      C850,550 750,700 600,650
      S450,600 300,700
      C150,800 250,900 400,850 
      S550,750 600,900 
      C650,1050 550,1150 450,1000 
      S350,900 200,1000 
      C50,1100 150,1200 300,1300 
      S450,1400 600,1350 
      C750,1300 650,1500 500,1450 
      S350,1400 200,1500 
      C50,1600 150,1700 300,1650 
      S450,1600 600,1750 
      C750,1900 650,2100 500,2000 
      S350,1900 200,2000 
      C50,2100 100,2300 300,2400 
      S500,2500 700,2400
      C900,2300 800,2200 600,2250 
      S400,2300 200,2200"
      stroke="url(#linear-gradient)" 
      stroke-width="12" fill="none"/>
  </g>
</svg>
