<svg xmlns="http://www.w3.org/2000/svg" viewBox="0 0 902 147"><g fill="none" stroke-width="2"><path stroke="#010214" d="m199.96 1-.96.54" vector-effect="non-scaling-stroke"/><path stroke="#808193" d="m199 1.54-.42-.31q-.31-.23-.7-.23H1.75Q1 1 1 1.75v143.53q0 .52.5.67.62.19 1.25.09" vector-effect="non-scaling-stroke"/><path stroke="#012055" d="M2.75 146.04q1.98-.15 3.44.96" vector-effect="non-scaling-stroke"/><path stroke="#7f5c23" d="M329.96 123.75c43.78 37.95 110.38 4.89 107.47-52.24q-.81-16.09-8.94-29.21C407.2 7.9 360.78-.11 330.21 27" vector-effect="non-scaling-stroke"/><path stroke="#770e2c" d="M330.21 27c-1.73-.9-3.41-2.59-4.54-3.42-46.66-34.15-110.85 4.41-102.66 61.16 7.44 51.56 68.31 71.92 106.95 39.01" vector-effect="non-scaling-stroke"/><path stroke="#f56a1c" d="m330.21 27 4.41 4.45a.59.59 0 0 1-.39 1c-3.94.18-9.12-1.4-11.6 2.4a.42.42 0 0 0 .35.65h14.25q.62 0 1 .49l2.3 3.02q.52.69-.34.7-9.63.13-19.27.02c-1.92-.03-2.96.95-3.4 2.69q-.15.58.45.58h24.26q.63 0 .96.54l1.91 3.21q.45.75-.42.75h-29.33q-.58 0-.83.52l-1.01 2.12q-.3.61.38.61h32.57q.43 0 .57.41l1.18 3.54q.18.55-.4.55h-35.48q-.51 0-.72.46l-.83 1.88q-.37.83.54.83l37.66.11q.46.01.56.44l.71 3.06q.17.71-.56.71l-37.65.01" vector-effect="non-scaling-stroke"/><path stroke="#f68e92" d="m312.04 62.75-6.74-.2q-.51-.01-.61.49-2.01 10.2-3.79 20.41c-1.34 7.66 3.45 8.92 9.77 7.18q.58-.16.67-.75l.59-3.84q.07-.44-.38-.48l-2.89-.21q-.45-.03-.54-.47-.44-2.05.34-3.88" vector-effect="non-scaling-stroke"/><path stroke="#f56a1c" d="M308.46 81q1.73.99 3.75.75" vector-effect="non-scaling-stroke"/><path stroke="#f68e92" d="M312.21 81.75c.42 9.87 10.79 10.67 18.33 8.66q.54-.14.65-.69l.9-4.61q.14-.67-.51-.44c-2.16.79-14.21 2.79-12.28-2.94q.16-.47.66-.47l12.2.07q.57 0 .71-.55c4.47-18.37-17.79-17.19-20.41-2.78" vector-effect="non-scaling-stroke"/><path stroke="#f56a1c" d="m312.46 78-3.42-.25" vector-effect="non-scaling-stroke"/><path stroke="#f68e92" d="m309.04 77.75.61-3.7q.09-.55.64-.55h2.34q.66 0 .78-.65l.82-4.56q.1-.54-.44-.54h-2.37q-.61 0-.65-.61-.03-.61.52-1.14" vector-effect="non-scaling-stroke"/><path stroke="#f56a1c" d="m311.29 66 39.16.2q.6 0 .75.58l.34 1.22" vector-effect="non-scaling-stroke"/><path stroke="#f68e92" d="M351.54 68q-2.58 4.82-3.08 10.25" vector-effect="non-scaling-stroke"/><path stroke="#f56a1c" d="m348.46 78.25-5.92-.25" vector-effect="non-scaling-stroke"/><path stroke="#f68e92" d="M342.54 78q.82-3.67 4.44-3.59.42 0 .57-.38l2.3-5.77q.2-.52-.35-.61-3.67-.63-5.81 2.41-.15.2-.4.19-.16 0-.34.01-.49.05-.32-.41l.58-1.54q.21-.56-.39-.56h-5.3q-.77 0-.91.75l-3.93 21.63q-.12.62.51.62h5.82q.52 0 .67-.5l.36-1.25" vector-effect="non-scaling-stroke"/><path stroke="#f56a1c" d="m340.04 89 9.69.09q.6 0 .43.57l-.97 3.32q-.15.52-.69.52h-36.83q-.61 0-.46.59l.46 1.8q.14.55.7.55l34.93.2q.75.01.49.71l-1.21 3.36q-.2.54-.77.54h-31.45q-.77 0-.4.68l1.15 2.09q.27.48.82.48h28.05q.71 0 .38.62l-1.65 3.17q-.24.46-.76.46h-23.38q-.89 0-.4.74l1.54 2.35q.29.44.83.44l19.04-.09q.57 0 .22.45l-2.67 3.5q-.27.36-.71.36h-12.4q-1.11 0-.3.76l1.99 1.88q.33.31.79.33l6.8.18q.73.02.22.53l-3.56 3.57" vector-effect="non-scaling-stroke"/><path stroke="#fedc89" d="m309.04 77.75-.58 3.25" vector-effect="non-scaling-stroke"/><path stroke="#f68e92" d="m349.96 85.75-1.5-4.75" vector-effect="non-scaling-stroke"/><path stroke="#fedc89" d="M348.46 81v-2.75m-36.25 3.5.25-3.75" vector-effect="non-scaling-stroke"/><path stroke="#f56a1c" d="M348.46 81q-3.44 1.06-6.96.21" vector-effect="non-scaling-stroke"/><path stroke="#fedc89" d="m340.04 89 .71-3.29" vector-effect="non-scaling-stroke"/><path stroke="#f56a1c" d="m340.75 85.71 9.21.04" vector-effect="non-scaling-stroke"/><path stroke="#fedc89" d="M349.96 85.75q6.32 8.25 16.55 4.56.45-.16.52-.62l.82-4.89q.14-.87-.68-.57c-18.46 6.74-12.58-22.97 2.8-14.55q.72.39.85-.42l.78-5.08q.1-.62-.49-.83-11.59-4.05-19.57 4.65m-40.25-2 .75-3.25M342.54 78l-1.04 3.21" vector-effect="non-scaling-stroke"/><path stroke="#f68e92" d="m341.5 81.21-.75 4.5" vector-effect="non-scaling-stroke"/><path stroke="#00001a" d="M433.38 115.53a3.22 3.22 0 0 0-3.22-3.22 3.22 3.22 0 0 0-3.22 3.22 3.22 3.22 0 0 0 3.22 3.22 3.22 3.22 0 0 0 3.22-3.22" vector-effect="non-scaling-stroke"/><path stroke="#010214" d="M463.81 0q-.9 2.03-.48 4.04a.96.96 0 0 0 1.45.61q1.68-1.05 2.68-.65" vector-effect="non-scaling-stroke"/><path stroke="gray" d="m467.46 4 .04 139.25q0 .5.51.5h224.98q.5 0 .5-.5L693.54 4" vector-effect="non-scaling-stroke"/><path stroke="#010214" d="M693.54 4q.69-.37 1.52-.23.44.07.44.51v34.25q0 .49.29.9.85 1.16 2.17.57m0 51.75-.21-.43q-.22-.45-.71-.32l-.68.17q-.54.14-.55.71-.67 30.92-.22 52.68.02.75.71 1.05.43.19.79-.13.39-.34.87-.48m-234.21-31.25v.56q0 .6.6.52.88-.13.88-1.01.05-46.04.04-92.07 0-2.11-1.02-5.27-.25-.77-.41.03-.57 2.96-.57 5.99-.03 45.42-.02 90.84 0 .08.07.1.14.05.27.09.16.05.16.22" vector-effect="non-scaling-stroke"/><path stroke="#808193" d="M693.54 4q-.05-.09-.1-.23 0-.02-.03-.02H467.75q-.18 0-.23.13-.03.07-.06.12" vector-effect="non-scaling-stroke"/><path stroke="#00257b" d="M829.2 29.68q-3.44-.47-6.82-1.17c-8.87-1.84-19.99-.76-29.13-.76-1.18 0-2.51 1.77-2.73 3.06q-1.91 10.91-3.6 21.88-.68 4.42-1.16 6-.09.28.2.33.16.02.29.02" vector-effect="non-scaling-stroke"/><path stroke="#0064b6" d="m786.25 59.04-4.59 27.23" vector-effect="non-scaling-stroke"/><path stroke="#005da6" d="m831.25 32.46-1.56-.4q-.59-.16-.69.45c-3.37 20.93-19.63 25.34-38.23 24.43q-2.75-.14-4.52 2.1" vector-effect="non-scaling-stroke"/><path stroke="#00165f" d="M751 120.54q-1.79.53-2.46 2.21m5.96-1.54q2.73-1.73 4.46-4.46" vector-effect="non-scaling-stroke"/><path stroke="gray" d="m199 1.54-.04 2.71" vector-effect="non-scaling-stroke"/><path stroke="#f3feff" d="m198.96 4.25-.28 1.97q-.07.54-.59.71l-.27.08q-.82.27-.61-.57.24-.95-.42-1.44" vector-effect="non-scaling-stroke"/><path stroke="#8196bb" d="M196.79 5q.1-.63-.09-1.25-.15-.5-.68-.5H3.72q-.56 0-.56.57l.13 10.68" vector-effect="non-scaling-stroke"/><path stroke="#809ec1" d="M3.29 14.5v11.75" vector-effect="non-scaling-stroke"/><path stroke="#80acce" d="M3.29 26.25v8.37" vector-effect="non-scaling-stroke"/><path stroke="#80bad5" d="M3.29 34.62v11.63" vector-effect="non-scaling-stroke"/><path stroke="#80c6de" d="M3.29 46.25v53" vector-effect="non-scaling-stroke"/><path stroke="#80bfcb" d="M3.29 99.25v9" vector-effect="non-scaling-stroke"/><path stroke="#80bdc3" d="M3.29 108.25v6" vector-effect="non-scaling-stroke"/><path stroke="#80b6b1" d="M3.29 114.25v13" vector-effect="non-scaling-stroke"/><path stroke="#80b2a6" d="M3.29 127.25v6" vector-effect="non-scaling-stroke"/><path stroke="#81af9f" d="m3.29 133.25.04 9.95q.01.56.57.56l192.86-.05" vector-effect="non-scaling-stroke"/><path stroke="#f3feff" d="M196.76 143.71c.04-1.16.24-5 1.5-5.11q.52-.04.53.48l.17 5.42" vector-effect="non-scaling-stroke"/><path stroke="gray" d="m198.96 144.5.08.75" vector-effect="non-scaling-stroke"/><path stroke="#809ec1" d="M199.04 145.25q.11.75-.48.75-97.9-.08-195.81.04" vector-effect="non-scaling-stroke"/><path stroke="#001f42" d="m199.96 146-.92-.75" vector-effect="non-scaling-stroke"/><path stroke="#747f80" d="M198.96 144.5V4.25" vector-effect="non-scaling-stroke"/><path stroke="#7595bb" d="m196.79 5-.08 8.75" vector-effect="non-scaling-stroke"/><path stroke="#01357d" d="M196.71 13.75c-7.67-2.22-13.44-2.39-21.65-2.32-28.09.23-59.3-.22-90.57-.06q-33.8.18-67.61-.06c-3.65-.02-10.91.71-13.59 3.19" vector-effect="non-scaling-stroke"/><path stroke="#80acce" d="M686.75 10.75a.26.26 0 0 0-.26-.26H474.47a.26.26 0 0 0-.26.26v31.24a.26.26 0 0 0 .26.26h212.02a.26.26 0 0 0 .26-.26V10.75M583.47 53.18c-6.45 5.31-9.05 15.96-.75 21.39.89.58 10.95 6.53 10.96 9.82.02 3.69-4.92 5.86-7.95 5.82q-7.22-.09-13.77-4.58-.44-.3-.61.21l-2.59 7.93q-.31.95.58 1.37c10.5 4.99 30.48 6.28 36.45-6.39 5.62-11.92-4.39-17.01-12.02-22.84-4.57-3.49-1.61-8.01 3.02-8.85q6.28-1.15 12.77 3.36.57.39.93-.2l4.01-6.74a.55.54-58.9 0 0-.18-.75c-9.13-5.63-22.33-6.57-30.85.45M528.5 81.69V50.25q0-.5-.5-.5h-20.95q-.37 0-.49.35-.25.7.52.81c6.48.95 8 4.42 8.24 10.76q.68 17.64 1.53 35.26.03.52.55.54l10.88.28q.55.02.84-.44l30.13-47.07q.31-.49-.27-.49h-9.93q-.62 0-.95.53l-19.06 31.56a.29.29 0 0 1-.54-.15m34.84-31.94a.39.39 0 0 0-.37.27L547.7 97.24a.39.39 0 0 0 .38.51h13.09a.39.39 0 0 0 .38-.27l14.85-47.22a.39.39 0 0 0-.37-.51h-12.69m67.91 0a.3.3 0 0 0-.26.15l-27.22 47.12a.3.3 0 0 0 .25.45l9.98.1a.3.3 0 0 0 .27-.16l5.18-9.75a.3.3 0 0 1 .26-.16h14.14a.3.3 0 0 1 .3.28l.56 9.43a.3.3 0 0 0 .3.28l12.33.13a.3.3 0 0 0 .3-.32l-3.21-47.27a.3.3 0 0 0-.3-.28h-12.88" vector-effect="non-scaling-stroke"/><path stroke="#fdd594" d="M686.75 105.87a.38.38 0 0 0-.38-.38H474.41a.38.38 0 0 0-.38.38v31a.38.38 0 0 0 .38.38h211.96a.38.38 0 0 0 .38-.38v-31" vector-effect="non-scaling-stroke"/><path stroke="#75ae9f" d="m196.76 143.71-.05-20.46" vector-effect="non-scaling-stroke"/><path stroke="#74b5b1" d="M196.71 123.25V111.5" vector-effect="non-scaling-stroke"/><path stroke="#74bcc3" d="M196.71 111.5V103" vector-effect="non-scaling-stroke"/><path stroke="#74becb" d="M196.71 103v-8" vector-effect="non-scaling-stroke"/><path stroke="#74b9d5" d="M196.71 95V44.25" vector-effect="non-scaling-stroke"/><path stroke="#74abce" d="M196.71 44.25v-15.5" vector-effect="non-scaling-stroke"/><path stroke="#749dc1" d="M196.71 28.75v-15" vector-effect="non-scaling-stroke"/><path stroke="#f68e92" d="m239.92 71.25.87 18.91q.03.59.62.59h5.19q.66 0 .92-.6l7.77-18.28a.25.25 0 0 1 .47.14l-3.41 18.02q-.13.72.61.72h5.57q.64 0 .76-.63l5.17-26.97q.12-.65-.55-.65H254q-.64 0-.89.59l-6.59 15.45q-.53 1.25-.55-.1l-.29-15.48q-.01-.46-.47-.46h-9.77q-.58 0-.68.56l-5.02 27q-.13.69.57.69h5.18q.45 0 .53-.44l3.59-19.08q.25-1.29.31.02m34.75 18.61.2.39q.27.5.85.5h4.33q.67 0 .79-.66 1.28-7.17 2.31-14.34c1.46-10.17-10.61-9.24-16.75-7.2q-.44.15-.54.61l-.86 4.08q-.11.54.43.43c2.97-.61 7.41-1.58 10.22-.33q.43.19.69.58.65.98.1 1.96-.28.49-.83.4-7.02-1.15-11.44 2.4c-3.07 2.47-3.55 8.33-.52 11.05 2.89 2.59 7.09 1.52 10.3-.1q.47-.24.72.23m18.12-6.65a1.49 1.49 0 0 1-.9 2.5q-4.12.52-8.25-.5-.66-.17-.79.5l-.78 4.04q-.11.59.48.74c6.02 1.5 19.16 1.86 17.37-8.35-.64-3.67-4.07-4.99-7.24-6.21a1.35 1.35 0 0 1 .17-2.57q3.42-.81 6.84-.07.67.14.79-.52l.83-4.44q.09-.46-.37-.56c-4.46-.99-11.9-1.03-14.99 2.95-2 2.57-1.8 6.83.81 9.09 1.52 1.32 4.5 1.77 6.03 3.4" vector-effect="non-scaling-stroke"/><path stroke="#fedc89" d="M418.5 89.53v.72q0 .5.5.5h5.65q.42 0 .5-.42l5.06-27.03q.15-.8-.66-.8h-5.65q-.61 0-.71.6l-1.08 6.37a.62.62 0 0 1-1.04.35c-8.72-8.28-17.65 4.56-16.93 12.86.66 7.68 7.21 10.6 13.95 6.62q.41-.24.41.23m-36.25-.02v.62q0 .62.62.62h4.69q.58 0 .67-.57c.82-4.97 2.72-12.98 2.56-16.42-.39-7.96-11.19-6.77-16.98-5.36q-.53.13-.64.66l-.84 4.23q-.14.72.56.5 5.01-1.57 10.14-.62.68.13.78.81l.22 1.45q.11.73-.63.72c-5.42-.12-12.82.07-14.36 6.83-1.94 8.49 7.41 9.98 12.71 6.27q.5-.35.5.26m17.74-19.54.42-1.61q.16-.61-.47-.61h-5.32q-.58 0-.68.57l-3.99 21.77q-.12.66.55.66h5.98q.63 0 .7-.63c.46-4.08 1.32-16.32 7.49-15.64q.45.05.58-.39l1.66-5.71q.14-.52-.38-.59c-3.17-.44-3.85.69-6.05 2.5q-.72.59-.49-.32m34.23 18.32a3.14 3.14 0 0 0-3.14-3.14 3.14 3.14 0 0 0-3.14 3.14 3.14 3.14 0 0 0 3.14 3.14 3.14 3.14 0 0 0 3.14-3.14" vector-effect="non-scaling-stroke"/><path stroke="#004b90" d="M196.71 28.75q-.6-1.13-.66-2.45-.02-.52-.52-.65-4.93-1.33-10.03-1.34-84.75-.04-169.49.04c-2.32 0-12.25.09-12.72 1.9" vector-effect="non-scaling-stroke"/><path stroke="#0167a4" d="m196.71 44.25-.64-8.39q-.03-.44-.37-.72c-1.15-.97-7.17-1.16-8.56-1.16q-33.82-.01-67.65.3c-11.56.1-25.46-.26-38.19-.08-7.73.11-16.79-.62-25.19-.35-15.71.51-30.28.06-45.44.57q-.29.01-3.7-.09-1.83-.05-3.68.29" vector-effect="non-scaling-stroke"/><path stroke="#0179a1" d="M196.71 95h-.17" vector-effect="non-scaling-stroke"/><path stroke="#0180b4" d="M196.54 95q-.18-24.75.17-49.5.06-3.9-3.34-4.01-8.43-.29-16.82-.68c-3.87-.18-6.3-1.11-9.75 1.44q-.26.2-.3.53l-.04.47" vector-effect="non-scaling-stroke"/><path stroke="#80bad5" d="m166.46 43.25-57.96-.54" vector-effect="non-scaling-stroke"/><path stroke="#0180b4" d="M108.5 42.71q-.51-1.42-1.63-2.42-.4-.36-.94-.35c-1.31.05-13.69.28-13.69.64q-.01.25-.25.22-3.92-.49-7.35 1.41-.06.04-.08-.03l-.08-.24q-.03-.09-.13-.09-.33 0-.59.05-.77.13-.1.53l.34.2q.33.2.05.46-.15.13-.3.2" vector-effect="non-scaling-stroke"/><path stroke="#80bad5" d="M83.75 43.29c-14.46-2.72-34.84-3.58-48.39 3.87" vector-effect="non-scaling-stroke"/><path stroke="#0180b4" d="M35.36 47.16q-3.39-3.55-8.22-3.12c-7.56.68-15.3.6-22.91.91q-.55.02-.71.55l-.23.75" vector-effect="non-scaling-stroke"/><path stroke="#80c6de" d="m108.5 42.71-1.52.05q-.48.02-.48.5v27.73q0 .5.5.5 27.75.03 55.5 0c8.48 0 14.54-6.92 13.91-15.28q-.68-8.88-9.95-12.96" vector-effect="non-scaling-stroke"/><path stroke="#0185a9" d="m196.54 95-.56 7.1q-.06.74-.78.86c-5.27.91-20.08 2.71-23.7-1.42" vector-effect="non-scaling-stroke"/><path stroke="#80c6de" d="M171.5 101.54c7.96-7.22 7.4-21.09-2.68-25.57q-3.31-1.48-10.87-1.48-25.43 0-50.92.02-.52 0-.52.52l-.05 24.97" vector-effect="non-scaling-stroke"/><path stroke="#0185a9" d="M106.46 100q-4.68 1.83-9.45.38-.49-.15-.51-.67l-.04-1.96" vector-effect="non-scaling-stroke"/><path stroke="#80c6de" d="M96.46 97.75q8.07-9.87 7.1-22.75-.04-.5-.55-.5h-38.1q-.65 0-.65-.65v-1.7q0-.65.65-.65h38.33q.49 0 .48-.49c-.38-13.58-5.9-24.34-19.97-27.72" vector-effect="non-scaling-stroke"/><path stroke="#80bfcb" d="M96.46 97.75q-7.24 6.52-16.96 7.79c-15.24 2-35.49 2.47-47.97-7.57" vector-effect="non-scaling-stroke"/><path stroke="#80c6de" d="M31.53 97.97c-5.8-6.47-7.59-13.4-7.87-21.88-.39-11.79 1.87-21.77 11.7-28.93" vector-effect="non-scaling-stroke"/><path stroke="#0185a9" d="M31.53 97.97q-13.12 3.63-26.82 2.37c-.72-.07-1.1-.52-1.42-1.09" vector-effect="non-scaling-stroke"/><path stroke="#80acce" d="M631.94 64.94q-4.17 7.63-8.3 15.44-.33.62.38.62h9.03q.56 0 .53-.55l-.61-16.15a.38.38 0 0 0-.66-.25q-.38.39-.37.89" vector-effect="non-scaling-stroke"/><path stroke="#fedc89" d="M413.961 85.368a6.34 4.4 106.2 0 0 5.994-4.86 6.34 4.4 106.2 0 0-2.456-7.316 6.34 4.4 106.2 0 0-5.994 4.86 6.34 4.4 106.2 0 0 2.456 7.316" vector-effect="non-scaling-stroke"/><path stroke="#f68e92" d="M268.48 82.5a2.03 2.03 0 0 0 .35 3.14c3.37 2.16 6.43-1.24 6.9-4.34q.08-.55-.46-.67-4.05-.9-6.79 1.87m51.17-6.89q-.74 1.16.64 1.15l6.49-.04q.74-.01.68-.75c-.44-5.34-5.68-3.78-7.81-.36" vector-effect="non-scaling-stroke"/><path stroke="#fedc89" d="M375.92 82.23a2.07 2.06 46.2 0 0-.06 3.08c3.3 3.09 6.75-.86 7.29-4.06q.08-.52-.44-.64-3.91-.86-6.79 1.62" vector-effect="non-scaling-stroke"/><path stroke="#80bfcb" d="M171.5 101.54q-4.12 3.21-7.25 3.21-28.6.01-57.21 0-.52 0-.53-.53l-.05-4.22" vector-effect="non-scaling-stroke"/><path stroke="#fedc89" d="M432.747 89.067a1.19 1.19 0 0 0-.033-1.682l-.864-.832a1.19 1.19 0 0 0-1.683.032l-.874.908a1.19 1.19 0 0 0 .033 1.682l.864.832a1.19 1.19 0 0 0 1.683-.032l.874-.908" vector-effect="non-scaling-stroke"/><path stroke="#fedc89" d="M430.02 88.4a.47.47 0 0 0 .45.6h1.13a.71.71 0 0 0 .42-1.28l-.93-.68q-.57-.42-.76.27l-.31 1.09" vector-effect="non-scaling-stroke"/><path stroke="#017c8e" d="M196.71 103q-1.09 2.38-.65 4.16a1.63 1.63 0 0 1-1.42 2.02q-10.54 1.05-20.56.66c-7.6-.29-14.85.16-22.64-.02-9.71-.23-24 .36-40.52-.19-3.69-.12-6.74.69-11.01.27-1.87-.18-3.71.55-5.64.28-6.33-.87-13.67-.42-20.14-.56q-3.91-.08-7.41-1.74c-4.59-2.17-9.68.79-14.26 1.27q-.31.04-.45-.24c-.01-.01-9.69.59-10.68.6-12.4.06-25.81.74-35.58.78q-1.87 0-2.46-2.04" vector-effect="non-scaling-stroke"/><path stroke="#017475" d="M196.71 111.5q-.98 1.53-.7 3.35.07.45-.29.73l-1.72 1.3q-.38.29-.85.29c-16.96-.03-34.16.73-50.89.54q-67.48-.78-134.96.18c-2.6.04-4.13-.88-4.01-3.64" vector-effect="non-scaling-stroke"/><path stroke="#80cdf0" d="m814.24 112.75-.99 5.95q-.1.54.44.65c9.07 1.81 9.66-9.73 1.37-7.5q-.7.19-.82.9" vector-effect="non-scaling-stroke"/><path stroke="#8096c5" d="m739.2 112.14-1.11 6.63q-.09.54.44.63c4.06.75 9.3-1.52 6.63-6.63q-.31-.6-.99-.67l-4.31-.47a.61.6-82.5 0 0-.66.51" vector-effect="non-scaling-stroke"/><path stroke="#026651" d="m196.71 123.25-.75.5" vector-effect="non-scaling-stroke"/><path stroke="#006958" d="m195.96 123.75-.28 6.96q-.04.95-.45.09l-.74-1.56q-.24-.51-.8-.43c-12.5 1.84-26.01 1.49-38.35 1.47q-71.21-.1-142.42-.04c-3.3 0-7.67.02-9.63-2.99" vector-effect="non-scaling-stroke"/><path stroke="#8096c5" d="M768.03 121.912a5.27 4.48-41.3 0 0-6.917.112 5.27 4.48-41.3 0 0-1.002 6.844 5.27 4.48-41.3 0 0 6.916-.112 5.27 4.48-41.3 0 0 1.002-6.844" vector-effect="non-scaling-stroke"/><path stroke="#80cdf0" d="M843.22 121.979a5.24 4.48-39.9 0 0-6.894-.076 5.24 4.48-39.9 0 0-1.146 6.798 5.24 4.48-39.9 0 0 6.894.076 5.24 4.48-39.9 0 0 1.146-6.798" vector-effect="non-scaling-stroke"/><path stroke="#026246" d="M3.29 133.25q.26.58.22 1.18-.03.47.42.59c5.41 1.37 12.24 1.11 16.08 1.36 13.05.86 26.39-.17 39.49-.12 44.38.17 88.75-.1 133.12.12q.56 0 .64.54.09.54.73.32.5-.17.59.34l.24 1.23q.03.16.17.08l.33-.2q.27-.16.28-.47l.36-14.47" vector-effect="non-scaling-stroke"/></g><path fill="#010327" d="M0 0h199.56l.4 1-.96.54-.42-.31q-.31-.23-.7-.23H1.75Q1 1 1 1.75v143.53q0 .52.5.67.62.19 1.25.09 1.98-.15 3.44.96H0z"/><path fill="#003" d="M213.22 0h234.59l.13 146.56q0 .13-.08.23-.09.1-.17.21h-234.5q-.5-73.5.03-147m116.74 123.75c43.78 37.95 110.38 4.89 107.47-52.24q-.81-16.09-8.94-29.21C407.2 7.9 360.78-.11 330.21 27c-1.73-.9-3.41-2.59-4.54-3.42-46.66-34.15-110.85 4.41-102.66 61.16 7.44 51.56 68.31 71.92 106.95 39.01m103.42-8.22a3.22 3.22 0 0 0-3.22-3.22 3.22 3.22 0 0 0-3.22 3.22 3.22 3.22 0 0 0 3.22 3.22 3.22 3.22 0 0 0 3.22-3.22"/><path d="M463.1 0h.71q-.9 2.03-.48 4.04a.96.96 0 0 0 1.45.61q1.68-1.05 2.68-.65l.04 139.25q0 .5.51.5h224.98q.5 0 .5-.5L693.54 4q.69-.37 1.52-.23.44.07.44.51v34.25q0 .49.29.9.85 1.16 2.17.57v51.75l-.21-.43q-.22-.45-.71-.32l-.68.17q-.54.14-.55.71-.67 30.92-.22 52.68.02.75.71 1.05.43.19.79-.13.39-.34.87-.48l-.27 2h-234.5zm.65 113.75v.56q0 .6.6.52.88-.13.88-1.01.05-46.04.04-92.07 0-2.11-1.02-5.27-.25-.77-.41.03-.57 2.96-.57 5.99-.03 45.42-.02 90.84 0 .08.07.1.14.05.27.09.16.05.16.22"/><path fill="#010327" d="M463.81 0h234l.15 40q-1.32.59-2.17-.57-.29-.41-.29-.9V4.28q0-.44-.44-.51-.83-.14-1.52.23-.05-.09-.1-.23 0-.02-.03-.02H467.75q-.18 0-.23.13-.03.07-.06.12-1-.4-2.68.65a.96.96 0 0 1-1.45-.61q-.42-2.01.48-4.04"/><path fill="#fff" d="m199 1.54-.04 2.71-.28 1.97q-.07.54-.59.71l-.27.08q-.82.27-.61-.57.24-.95-.42-1.44.1-.63-.09-1.25-.15-.5-.68-.5H3.72q-.56 0-.56.57l.13 10.68v118.75l.04 9.95q.01.56.57.56l192.86-.05c.04-1.16.24-5 1.5-5.11q.52-.04.53.48l.17 5.42.08.75q.11.75-.48.75-97.9-.08-195.81.04-.63.1-1.25-.09-.5-.15-.5-.67V1.75Q1 1 1.75 1h196.13q.39 0 .7.23z"/><path d="M199.96 1v145l-.92-.75-.08-.75V4.25l.04-2.71z"/><path fill="#022c76" d="m196.79 5-.08 8.75c-7.67-2.22-13.44-2.39-21.65-2.32-28.09.23-59.3-.22-90.57-.06q-33.8.18-67.61-.06c-3.65-.02-10.91.71-13.59 3.19L3.16 3.82q0-.57.56-.57h192.3q.53 0 .68.5.19.62.09 1.25"/><path fill="#fff" d="m693.54 4-.05 139.25q0 .5-.5.5H468.01q-.51 0-.51-.5L467.46 4q.03-.05.06-.12.05-.13.23-.13h225.66q.03 0 .03.02.05.14.1.23m-6.79 6.75a.26.26 0 0 0-.26-.26H474.47a.26.26 0 0 0-.26.26v31.24a.26.26 0 0 0 .26.26h212.02a.26.26 0 0 0 .26-.26zM583.47 53.18c-6.45 5.31-9.05 15.96-.75 21.39.89.58 10.95 6.53 10.96 9.82.02 3.69-4.92 5.86-7.95 5.82q-7.22-.09-13.77-4.58-.44-.3-.61.21l-2.59 7.93q-.31.95.58 1.37c10.5 4.99 30.48 6.28 36.45-6.39 5.62-11.92-4.39-17.01-12.02-22.84-4.57-3.49-1.61-8.01 3.02-8.85q6.28-1.15 12.77 3.36.57.39.93-.2l4.01-6.74a.55.54-58.9 0 0-.18-.75c-9.13-5.63-22.33-6.57-30.85.45M528.5 81.69V50.25q0-.5-.5-.5h-20.95q-.37 0-.49.35-.25.7.52.81c6.48.95 8 4.42 8.24 10.76q.68 17.64 1.53 35.26.03.52.55.54l10.88.28q.55.02.84-.44l30.13-47.07q.31-.49-.27-.49h-9.93q-.62 0-.95.53l-19.06 31.56a.29.29 0 0 1-.54-.15m34.84-31.94a.39.39 0 0 0-.37.27L547.7 97.24a.39.39 0 0 0 .38.51h13.09a.39.39 0 0 0 .38-.27l14.85-47.22a.39.39 0 0 0-.37-.51zm67.91 0a.3.3 0 0 0-.26.15l-27.22 47.12a.3.3 0 0 0 .25.45l9.98.1a.3.3 0 0 0 .27-.16l5.18-9.75a.3.3 0 0 1 .26-.16h14.14a.3.3 0 0 1 .3.28l.56 9.43a.3.3 0 0 0 .3.28l12.33.13a.3.3 0 0 0 .3-.32l-3.21-47.27a.3.3 0 0 0-.3-.28zm55.5 56.12a.38.38 0 0 0-.38-.38H474.41a.38.38 0 0 0-.38.38v31a.38.38 0 0 0 .38.38h211.96a.38.38 0 0 0 .38-.38z"/><path fill="#e7fdff" d="M198.96 4.25V144.5l-.17-5.42q-.01-.52-.53-.48c-1.26.11-1.46 3.95-1.5 5.11l-.05-20.46V13.75l.08-8.75q.66.49.42 1.44-.21.84.61.57l.27-.08q.52-.17.59-.71z"/><path fill="#002c8a" d="M829.2 29.68q-3.44-.47-6.82-1.17c-8.87-1.84-19.99-.76-29.13-.76-1.18 0-2.51 1.77-2.73 3.06q-1.91 10.91-3.6 21.88-.68 4.42-1.16 6-.09.28.2.33.16.02.29.02l-4.59 27.23q-8.57 0-16.58-.07c-2.08-.02-2.45-1.77-2.17-3.56q5.56-35.49 11.65-70.88c.39-2.29 1.82-2.97 4.09-2.98q12.8-.06 25.59-.02c12.88.03 27.69 4.51 24.96 20.92"/><rect width="212.54" height="31.76" x="474.21" y="10.49" fill="#00599c" rx=".26"/><path fill="#ed1c24" d="m330.21 27 4.41 4.45a.59.59 0 0 1-.39 1c-3.94.18-9.12-1.4-11.6 2.4a.42.42 0 0 0 .35.65h14.25q.62 0 1 .49l2.3 3.02q.52.69-.34.7-9.63.13-19.27.02c-1.92-.03-2.96.95-3.4 2.69q-.15.58.45.58h24.26q.63 0 .96.54l1.91 3.21q.45.75-.42.75h-29.33q-.58 0-.83.52l-1.01 2.12q-.3.61.38.61h32.57q.43 0 .57.41l1.18 3.54q.18.55-.4.55h-35.48q-.51 0-.72.46l-.83 1.88q-.37.83.54.83l37.66.11q.46.01.56.44l.71 3.06q.17.71-.56.71l-37.65.01-6.74-.2q-.51-.01-.61.49-2.01 10.2-3.79 20.41c-1.34 7.66 3.45 8.92 9.77 7.18q.58-.16.67-.75l.59-3.84q.07-.44-.38-.48l-2.89-.21q-.45-.03-.54-.47-.44-2.05.34-3.88 1.73.99 3.75.75c.42 9.87 10.79 10.67 18.33 8.66q.54-.14.65-.69l.9-4.61q.14-.67-.51-.44c-2.16.79-14.21 2.79-12.28-2.94q.16-.47.66-.47l12.2.07q.57 0 .71-.55c4.47-18.37-17.79-17.19-20.41-2.78l-3.42-.25.61-3.7q.09-.55.64-.55h2.34q.66 0 .78-.65l.82-4.56q.1-.54-.44-.54h-2.37q-.61 0-.65-.61-.03-.61.52-1.14l39.16.2q.6 0 .75.58l.34 1.22q-2.58 4.82-3.08 10.25l-5.92-.25q.82-3.67 4.44-3.59.42 0 .57-.38l2.3-5.77q.2-.52-.35-.61-3.67-.63-5.81 2.41-.15.2-.4.19-.16 0-.34.01-.49.05-.32-.41l.58-1.54q.21-.56-.39-.56h-5.3q-.77 0-.91.75l-3.93 21.63q-.12.62.51.62h5.82q.52 0 .67-.5l.36-1.25 9.69.09q.6 0 .43.57l-.97 3.32q-.15.52-.69.52h-36.83q-.61 0-.46.59l.46 1.8q.14.55.7.55l34.93.2q.75.01.49.71l-1.21 3.36q-.2.54-.77.54h-31.45q-.77 0-.4.68l1.15 2.09q.27.48.82.48h28.05q.71 0 .38.62l-1.65 3.17q-.24.46-.76.46h-23.38q-.89 0-.4.74l1.54 2.35q.29.44.83.44l19.04-.09q.57 0 .22.45l-2.67 3.5q-.27.36-.71.36h-12.4q-1.11 0-.3.76l1.99 1.88q.33.31.79.33l6.8.18q.73.02.22.53l-3.56 3.57c-38.64 32.91-99.51 12.55-106.95-39.01-8.19-56.75 56-95.31 102.66-61.16 1.13.83 2.81 2.52 4.54 3.42m-90.29 44.25.87 18.91q.03.59.62.59h5.19q.66 0 .92-.6l7.77-18.28a.25.25 0 0 1 .47.14l-3.41 18.02q-.13.72.61.72h5.57q.64 0 .76-.63l5.17-26.97q.12-.65-.55-.65H254q-.64 0-.89.59l-6.59 15.45q-.53 1.25-.55-.1l-.29-15.48q-.01-.46-.47-.46h-9.77q-.58 0-.68.56l-5.02 27q-.13.69.57.69h5.18q.45 0 .53-.44l3.59-19.08q.25-1.29.31.02m34.75 18.61.2.39q.27.5.85.5h4.33q.67 0 .79-.66 1.28-7.17 2.31-14.34c1.46-10.17-10.61-9.24-16.75-7.2q-.44.15-.54.61l-.86 4.08q-.11.54.43.43c2.97-.61 7.41-1.58 10.22-.33q.43.19.69.58.65.98.1 1.96-.28.49-.83.4-7.02-1.15-11.44 2.4c-3.07 2.47-3.55 8.33-.52 11.05 2.89 2.59 7.09 1.52 10.3-.1q.47-.24.72.23m18.12-6.65a1.49 1.49 0 0 1-.9 2.5q-4.12.52-8.25-.5-.66-.17-.79.5l-.78 4.04q-.11.59.48.74c6.02 1.5 19.16 1.86 17.37-8.35-.64-3.67-4.07-4.99-7.24-6.21a1.35 1.35 0 0 1 .17-2.57q3.42-.81 6.84-.07.67.14.79-.52l.83-4.44q.09-.46-.37-.56c-4.46-.99-11.9-1.03-14.99 2.95-2 2.57-1.8 6.83.81 9.09 1.52 1.32 4.5 1.77 6.03 3.4"/><path fill="#fdb813" d="m329.96 123.75 3.56-3.57q.51-.51-.22-.53l-6.8-.18q-.46-.02-.79-.33l-1.99-1.88q-.81-.76.3-.76h12.4q.44 0 .71-.36l2.67-3.5q.35-.45-.22-.45l-19.04.09q-.54 0-.83-.44l-1.54-2.35q-.49-.74.4-.74h23.38q.52 0 .76-.46l1.65-3.17q.33-.62-.38-.62h-28.05q-.55 0-.82-.48l-1.15-2.09q-.37-.68.4-.68h31.45q.57 0 .77-.54l1.21-3.36q.26-.7-.49-.71l-34.93-.2q-.56 0-.7-.55l-.46-1.8q-.15-.59.46-.59h36.83q.54 0 .69-.52l.97-3.32q.17-.57-.43-.57l-9.69-.09.71-3.29 9.21.04q6.32 8.25 16.55 4.56.45-.16.52-.62l.82-4.89q.14-.87-.68-.57c-18.46 6.74-12.58-22.97 2.8-14.55q.72.39.85-.42l.78-5.08q.1-.62-.49-.83-11.59-4.05-19.57 4.65l-.34-1.22q-.15-.58-.75-.58l-39.16-.2.75-3.25 37.65-.01q.73 0 .56-.71l-.71-3.06q-.1-.43-.56-.44l-37.66-.11q-.91 0-.54-.83l.83-1.88q.21-.46.72-.46h35.48q.58 0 .4-.55l-1.18-3.54q-.14-.41-.57-.41h-32.57q-.68 0-.38-.61l1.01-2.12q.25-.52.83-.52h29.33q.87 0 .42-.75l-1.91-3.21q-.33-.54-.96-.54h-24.26q-.6 0-.45-.58c.44-1.74 1.48-2.72 3.4-2.69q9.64.11 19.27-.02.86-.01.34-.7l-2.3-3.02q-.38-.49-1-.49h-14.25a.42.42 0 0 1-.35-.65c2.48-3.8 7.66-2.22 11.6-2.4a.59.59 0 0 0 .39-1L330.21 27C360.78-.11 407.2 7.9 428.49 42.3q8.13 13.12 8.94 29.21c2.91 57.13-63.69 90.19-107.47 52.24m88.54-34.22v.72q0 .5.5.5h5.65q.42 0 .5-.42l5.06-27.03q.15-.8-.66-.8h-5.65q-.61 0-.71.6l-1.08 6.37a.62.62 0 0 1-1.04.35c-8.72-8.28-17.65 4.56-16.93 12.86.66 7.68 7.21 10.6 13.95 6.62q.41-.24.41.23m-36.25-.02v.62q0 .62.62.62h4.69q.58 0 .67-.57c.82-4.97 2.72-12.98 2.56-16.42-.39-7.96-11.19-6.77-16.98-5.36q-.53.13-.64.66l-.84 4.23q-.14.72.56.5 5.01-1.57 10.14-.62.68.13.78.81l.22 1.45q.11.73-.63.72c-5.42-.12-12.82.07-14.36 6.83-1.94 8.49 7.41 9.98 12.71 6.27q.5-.35.5.26m17.74-19.54.42-1.61q.16-.61-.47-.61h-5.32q-.58 0-.68.57l-3.99 21.77q-.12.66.55.66h5.98q.63 0 .7-.63c.46-4.08 1.32-16.32 7.49-15.64q.45.05.58-.39l1.66-5.71q.14-.52-.38-.59c-3.17-.44-3.85.69-6.05 2.5q-.72.59-.49-.32m34.23 18.32a3.14 3.14 0 0 0-3.14-3.14 3.14 3.14 0 0 0-3.14 3.14 3.14 3.14 0 0 0 3.14 3.14 3.14 3.14 0 0 0 3.14-3.14"/><path fill="#003d83" d="M196.71 13.75v15q-.6-1.13-.66-2.45-.02-.52-.52-.65-4.93-1.33-10.03-1.34-84.75-.04-169.49.04c-2.32 0-12.25.09-12.72 1.9V14.5c2.68-2.48 9.94-3.21 13.59-3.19q33.81.24 67.61.06c31.27-.16 62.48.29 90.57.06 8.21-.07 13.98.1 21.65 2.32"/><path fill="#010327" d="M463.59 113.53q-.13-.04-.27-.09-.07-.02-.07-.1-.01-45.42.02-90.84 0-3.03.57-5.99.16-.8.41-.03 1.02 3.16 1.02 5.27.01 46.03-.04 92.07 0 .88-.88 1.01-.6.08-.6-.52v-.56q0-.17-.16-.22"/><path fill="#00599c" d="M196.71 28.75v15.5l-.64-8.39q-.03-.44-.37-.72c-1.15-.97-7.17-1.16-8.56-1.16q-33.82-.01-67.65.3c-11.56.1-25.46-.26-38.19-.08-7.73.11-16.79-.62-25.19-.35-15.71.51-30.28.06-45.44.57q-.29.01-3.7-.09-1.83-.05-3.68.29v-8.37c.47-1.81 10.4-1.9 12.72-1.9q84.74-.08 169.49-.04 5.1.01 10.03 1.34.5.13.52.65.06 1.32.66 2.45"/><path fill="#001e6b" d="M829.2 29.68q-.03 1.76 2.05 2.78l-1.56-.4q-.59-.16-.69.45c-3.37 20.93-19.63 25.34-38.23 24.43q-2.75-.14-4.52 2.1-.13 0-.29-.02-.29-.05-.2-.33.48-1.58 1.16-6 1.69-10.97 3.6-21.88c.22-1.29 1.55-3.06 2.73-3.06 9.14 0 20.26-1.08 29.13.76q3.38.7 6.82 1.17"/><path fill="#009be1" d="M831.25 32.46c7.31 5.94 6.07 16.86 2.59 24.43-5.1 11.1-14.58 14.56-26.16 14.59-3.31.01-4.46.71-4.98 3.96q-1.43 9.03-2.9 18.07-.3 1.81-2.56 1.95-7.24.48-14.49.55c-3.46.04-1.06-7.39-1.09-9.74l4.59-27.23q1.77-2.24 4.52-2.1c18.6.91 34.86-3.5 38.23-24.43q.1-.61.69-.45z"/><path fill="#0174ab" d="M196.71 44.25V95h-.17q-.18-24.75.17-49.5.06-3.9-3.34-4.01-8.43-.29-16.82-.68c-3.87-.18-6.3-1.11-9.75 1.44q-.26.2-.3.53l-.04.47-57.96-.54q-.51-1.42-1.63-2.42-.4-.36-.94-.35c-1.31.05-13.69.28-13.69.64q-.01.25-.25.22-3.92-.49-7.35 1.41-.06.04-.08-.03l-.08-.24q-.03-.09-.13-.09-.33 0-.59.05-.77.13-.1.53l.34.2q.33.2.05.46-.15.13-.3.2c-14.46-2.72-34.84-3.58-48.39 3.87q-3.39-3.55-8.22-3.12c-7.56.68-15.3.6-22.91.91q-.55.02-.71.55l-.23.75V34.62q1.85-.34 3.68-.29 3.41.1 3.7.09c15.16-.51 29.73-.06 45.44-.57 8.4-.27 17.46.46 25.19.35 12.73-.18 26.63.18 38.19.08q33.83-.31 67.65-.3c1.39 0 7.41.19 8.56 1.16q.34.28.37.72z"/><path fill="#018cbc" d="m108.5 42.71-1.52.05q-.48.02-.48.5v27.73q0 .5.5.5 27.75.03 55.5 0c8.48 0 14.54-6.92 13.91-15.28q-.68-8.88-9.95-12.96l.04-.47q.04-.33.3-.53c3.45-2.55 5.88-1.62 9.75-1.44q8.39.39 16.82.68 3.4.11 3.34 4.01-.35 24.75-.17 49.5l-.56 7.1q-.06.74-.78.86c-5.27.91-20.08 2.71-23.7-1.42 7.96-7.22 7.4-21.09-2.68-25.57q-3.31-1.48-10.87-1.48-25.43 0-50.92.02-.52 0-.52.52l-.05 24.97q-4.68 1.83-9.45.38-.49-.15-.51-.67l-.04-1.96q8.07-9.87 7.1-22.75-.04-.5-.55-.5h-38.1q-.65 0-.65-.65v-1.7q0-.65.65-.65h38.33q.49 0 .48-.49c-.38-13.58-5.9-24.34-19.97-27.72q.15-.07.3-.2.28-.26-.05-.46l-.34-.2q-.67-.4.1-.53.26-.05.59-.05.1 0 .13.09l.08.24q.02.07.08.03 3.43-1.9 7.35-1.41.24.03.25-.22c0-.36 12.38-.59 13.69-.64q.54-.01.94.35 1.12 1 1.63 2.42"/><path fill="#fff" d="M83.75 43.29c14.07 3.38 19.59 14.14 19.97 27.72q.01.49-.48.49H64.91q-.65 0-.65.65v1.7q0 .65.65.65h38.1q.51 0 .55.5.97 12.88-7.1 22.75-7.24 6.52-16.96 7.79c-15.24 2-35.49 2.47-47.97-7.57-5.8-6.47-7.59-13.4-7.87-21.88-.39-11.79 1.87-21.77 11.7-28.93 13.55-7.45 33.93-6.59 48.39-3.87m24.75-.58 57.96.54q9.27 4.08 9.95 12.96c.63 8.36-5.43 15.28-13.91 15.28q-27.75.03-55.5 0-.5 0-.5-.5V43.26q0-.48.48-.5z"/><path fill="#018cbc" d="M35.36 47.16c-9.83 7.16-12.09 17.14-11.7 28.93.28 8.48 2.07 15.41 7.87 21.88q-13.12 3.63-26.82 2.37c-.72-.07-1.1-.52-1.42-1.09v-53l.23-.75q.16-.53.71-.55c7.61-.31 15.35-.23 22.91-.91q4.83-.43 8.22 3.12"/><path fill="#00599c" d="M582.72 74.57c-8.3-5.43-5.7-16.08.75-21.39 8.52-7.02 21.72-6.08 30.85-.45a.55.54-58.9 0 1 .18.75l-4.01 6.74q-.36.59-.93.2-6.49-4.51-12.77-3.36c-4.63.84-7.59 5.36-3.02 8.85 7.63 5.83 17.64 10.92 12.02 22.84-5.97 12.67-25.95 11.38-36.45 6.39q-.89-.42-.58-1.37l2.59-7.93q.17-.51.61-.21 6.55 4.49 13.77 4.58c3.03.04 7.97-2.13 7.95-5.82-.01-3.29-10.07-9.24-10.96-9.82m-54.22 7.12a.29.29 0 0 0 .54.15l19.06-31.56q.33-.53.95-.53h9.93q.58 0 .27.49l-30.13 47.07q-.29.46-.84.44l-10.88-.28q-.52-.02-.55-.54-.85-17.62-1.53-35.26c-.24-6.34-1.76-9.81-8.24-10.76q-.77-.11-.52-.81.12-.35.49-.35H528q.5 0 .5.5zm34.84-31.94h12.69a.39.39 0 0 1 .37.51l-14.85 47.22a.39.39 0 0 1-.38.27h-13.09a.39.39 0 0 1-.38-.51l15.27-47.22a.39.39 0 0 1 .37-.27m67.91 0h12.88a.3.3 0 0 1 .3.28l3.21 47.27a.3.3 0 0 1-.3.32l-12.33-.13a.3.3 0 0 1-.3-.28l-.56-9.43a.3.3 0 0 0-.3-.28h-14.14a.3.3 0 0 0-.26.16l-5.18 9.75a.3.3 0 0 1-.27.16l-9.98-.1a.3.3 0 0 1-.25-.45l27.22-47.12a.3.3 0 0 1 .26-.15m.69 15.19q-4.17 7.63-8.3 15.44-.33.62.38.62h9.03q.56 0 .53-.55l-.61-16.15a.38.38 0 0 0-.66-.25q-.38.39-.37.89"/><path fill="#fff" d="m349.96 85.75-1.5-4.75v-2.75q.5-5.43 3.08-10.25 7.98-8.7 19.57-4.65.59.21.49.83l-.78 5.08q-.13.81-.85.42c-15.38-8.42-21.26 21.29-2.8 14.55q.82-.3.68.57l-.82 4.89q-.07.46-.52.62-10.23 3.69-16.55-4.56M239.61 71.23l-3.59 19.08q-.08.44-.53.44h-5.18q-.7 0-.57-.69l5.02-27q.1-.56.68-.56h9.77q.46 0 .47.46l.29 15.48q.02 1.35.55.1l6.59-15.45q.25-.59.89-.59h9.91q.67 0 .55.65l-5.17 26.97q-.12.63-.76.63h-5.57q-.74 0-.61-.72l3.41-18.02a.25.25 0 0 0-.47-.14l-7.77 18.28q-.26.6-.92.6h-5.19q-.59 0-.62-.59l-.87-18.91q-.06-1.31-.31-.02m72.43-8.48-.75 3.25q-.55.53-.52 1.14.04.61.65.61h2.37q.54 0 .44.54l-.82 4.56q-.12.65-.78.65h-2.34q-.55 0-.64.55l-.61 3.7-.58 3.25q-.78 1.83-.34 3.88.09.44.54.47l2.89.21q.45.04.38.48l-.59 3.84q-.09.59-.67.75c-6.32 1.74-11.11.48-9.77-7.18q1.78-10.21 3.79-20.41.1-.5.61-.49zM418.09 89.3c-6.74 3.98-13.29 1.06-13.95-6.62-.72-8.3 8.21-21.14 16.93-12.86a.62.62 0 0 0 1.04-.35l1.08-6.37q.1-.6.71-.6h5.65q.81 0 .66.8l-5.06 27.03q-.08.42-.5.42H419q-.5 0-.5-.5v-.72q0-.47-.41-.23m-4.129-3.932a6.34 4.4 106.2 0 0 5.994-4.86 6.34 4.4 106.2 0 0-2.456-7.316 6.34 4.4 106.2 0 0-5.994 4.86 6.34 4.4 106.2 0 0 2.456 7.316M631.94 64.94q-.01-.5.37-.89a.38.38 0 0 1 .66.25l.61 16.15q.03.55-.53.55h-9.03q-.71 0-.38-.62 4.13-7.81 8.3-15.44M273.95 89.63c-3.21 1.62-7.41 2.69-10.3.1-3.03-2.72-2.55-8.58.52-11.05q4.42-3.55 11.44-2.4.55.09.83-.4.55-.98-.1-1.96-.26-.39-.69-.58c-2.81-1.25-7.25-.28-10.22.33q-.54.11-.43-.43l.86-4.08q.1-.46.54-.61c6.14-2.04 18.21-2.97 16.75 7.2q-1.03 7.17-2.31 14.34-.12.66-.79.66h-4.33q-.58 0-.85-.5l-.2-.39q-.25-.47-.72-.23m-5.47-7.13a2.03 2.03 0 0 0 .35 3.14c3.37 2.16 6.43-1.24 6.9-4.34q.08-.55-.46-.67-4.05-.9-6.79 1.87"/><path fill="#fff" d="M292.79 83.21c-1.53-1.63-4.51-2.08-6.03-3.4-2.61-2.26-2.81-6.52-.81-9.09 3.09-3.98 10.53-3.94 14.99-2.95q.46.1.37.56l-.83 4.44q-.12.66-.79.52-3.42-.74-6.84.07a1.35 1.35 0 0 0-.17 2.57c3.17 1.22 6.6 2.54 7.24 6.21 1.79 10.21-11.35 9.85-17.37 8.35q-.59-.15-.48-.74l.78-4.04q.13-.67.79-.5 4.13 1.02 8.25.5a1.49 1.49 0 0 0 .9-2.5m19.42-1.46.25-3.75c2.62-14.41 24.88-15.59 20.41 2.78q-.14.55-.71.55l-12.2-.07q-.5 0-.66.47c-1.93 5.73 10.12 3.73 12.28 2.94q.65-.23.51.44l-.9 4.61q-.11.55-.65.69c-7.54 2.01-17.91 1.21-18.33-8.66m7.44-6.14q-.74 1.16.64 1.15l6.49-.04q.74-.01.68-.75c-.44-5.34-5.68-3.78-7.81-.36M342.54 78l-1.04 3.21-.75 4.5-.71 3.29-.36 1.25q-.15.5-.67.5h-5.82q-.63 0-.51-.62l3.93-21.63q.14-.75.91-.75h5.3q.6 0 .39.56l-.58 1.54q-.17.46.32.41.18-.01.34-.01.25.01.4-.19 2.14-3.04 5.81-2.41.55.09.35.61l-2.3 5.77q-.15.38-.57.38-3.62-.08-4.44 3.59m39.21 11.25c-5.3 3.71-14.65 2.22-12.71-6.27 1.54-6.76 8.94-6.95 14.36-6.83q.74.01.63-.72l-.22-1.45q-.1-.68-.78-.81-5.13-.95-10.14.62-.7.22-.56-.5l.84-4.23q.11-.53.64-.66c5.79-1.41 16.59-2.6 16.98 5.36.16 3.44-1.74 11.45-2.56 16.42q-.09.57-.67.57h-4.69q-.62 0-.62-.62v-.62q0-.61-.5-.26m-5.83-7.02a2.07 2.06 46.2 0 0-.06 3.08c3.3 3.09 6.75-.86 7.29-4.06q.08-.52-.44-.64-3.91-.86-6.79 1.62m24.56-11.94c2.2-1.81 2.88-2.94 6.05-2.5q.52.07.38.59l-1.66 5.71q-.13.44-.58.39c-6.17-.68-7.03 11.56-7.49 15.64q-.07.63-.7.63h-5.98q-.67 0-.55-.66l3.99-21.77q.1-.57.68-.57h5.32q.63 0 .47.61l-.42 1.61q-.23.91.49.32"/><path fill="#ed1c24" d="M319.65 75.61c2.13-3.42 7.37-4.98 7.81.36q.06.74-.68.75l-6.49.04q-1.38.01-.64-1.15"/><ellipse fill="#fdb813" rx="6.34" ry="4.4" transform="rotate(106.2 178.102 195.71)"/><path fill="#fff" d="M171.5 101.54q-4.12 3.21-7.25 3.21-28.6.01-57.21 0-.52 0-.53-.53l-.05-4.22.05-24.97q0-.52.52-.52 25.49-.02 50.92-.02 7.56 0 10.87 1.48c10.08 4.48 10.64 18.35 2.68 25.57"/><path fill="#fdb813" d="m309.04 77.75 3.42.25-.25 3.75q-2.02.24-3.75-.75zm33.5.25 5.92.25V81q-3.44 1.06-6.96.21z"/><path fill="#ed1c24" d="M268.48 82.5q2.74-2.77 6.79-1.87.54.12.46.67c-.47 3.1-3.53 6.5-6.9 4.34a2.03 2.03 0 0 1-.35-3.14"/><path fill="#fdb813" d="M375.92 82.23q2.88-2.48 6.79-1.62.52.12.44.64c-.54 3.2-3.99 7.15-7.29 4.06a2.07 2.06 46.2 0 1 .06-3.08"/><path fill="#ed1c24" d="m348.46 81 1.5 4.75-9.21-.04.75-4.5q3.52.85 6.96-.21"/><path fill="#fff" d="M434.22 88.29a3.14 3.14 0 0 1-3.14 3.14 3.14 3.14 0 0 1-3.14-3.14 3.14 3.14 0 0 1 3.14-3.14 3.14 3.14 0 0 1 3.14 3.14m-1.473.777a1.19 1.19 0 0 0-.033-1.682l-.864-.832a1.19 1.19 0 0 0-1.683.032l-.874.908a1.19 1.19 0 0 0 .033 1.682l.864.832a1.19 1.19 0 0 0 1.683-.032z"/><path fill="#fdb813" d="M431.873 89.975a1.19 1.19 0 0 1-1.683.032l-.864-.832a1.19 1.19 0 0 1-.033-1.682l.874-.908a1.19 1.19 0 0 1 1.683-.032l.864.832a1.19 1.19 0 0 1 .033 1.682zM430.02 88.4a.47.47 0 0 0 .45.6h1.13a.71.71 0 0 0 .42-1.28l-.93-.68q-.57-.42-.76.27z"/><path fill="#fff" d="m430.02 88.4.31-1.09q.19-.69.76-.27l.93.68a.71.71 0 0 1-.42 1.28h-1.13a.47.47 0 0 1-.45-.6"/><path fill="#010327" d="M697.96 91.75V145q-.48.14-.87.48-.36.32-.79.13-.69-.3-.71-1.05-.45-21.76.22-52.68.01-.57.55-.71l.68-.17q.49-.13.71.32z"/><path fill="#017e96" d="M196.54 95h.17v8q-1.09 2.38-.65 4.16a1.63 1.63 0 0 1-1.42 2.02q-10.54 1.05-20.56.66c-7.6-.29-14.85.16-22.64-.02-9.71-.23-24 .36-40.52-.19-3.69-.12-6.74.69-11.01.27-1.87-.18-3.71.55-5.64.28-6.33-.87-13.67-.42-20.14-.56q-3.91-.08-7.41-1.74c-4.59-2.17-9.68.79-14.26 1.27q-.31.04-.45-.24c-.01-.01-9.69.59-10.68.6-12.4.06-25.81.74-35.58.78q-1.87 0-2.46-2.04v-9c.32.57.7 1.02 1.42 1.09q13.7 1.26 26.82-2.37c12.48 10.04 32.73 9.57 47.97 7.57q9.72-1.27 16.96-7.79l.04 1.96q.02.52.51.67 4.77 1.45 9.45-.38l.05 4.22q.01.53.53.53 28.61.01 57.21 0 3.13 0 7.25-3.21c3.62 4.13 18.43 2.33 23.7 1.42q.72-.12.78-.86z"/><path fill="#017a86" d="M196.71 103v8.5q-.98 1.53-.7 3.35.07.45-.29.73l-1.72 1.3q-.38.29-.85.29c-16.96-.03-34.16.73-50.89.54q-67.48-.78-134.96.18c-2.6.04-4.13-.88-4.01-3.64v-6q.59 2.04 2.46 2.04c9.77-.04 23.18-.72 35.58-.78.99-.01 10.67-.61 10.68-.6q.14.28.45.24c4.58-.48 9.67-3.44 14.26-1.27q3.5 1.66 7.41 1.74c6.47.14 13.81-.31 20.14.56 1.93.27 3.77-.46 5.64-.28 4.27.42 7.32-.39 11.01-.27 16.52.55 30.81-.04 40.52.19 7.79.18 15.04-.27 22.64.02q10.02.39 20.56-.66a1.63 1.63 0 0 0 1.42-2.02q-.44-1.78.65-4.16"/><rect width="212.72" height="31.76" x="474.03" y="105.49" fill="#fbaa29" rx=".38"/><path fill="#009be1" d="M807.97 107.22a1.13 1.12-88 0 1 1.02-.96c7.18-.55 23.7-2.55 18.46 11.29-2.82 7.46-8.02 7.31-15.02 6.96q-.57-.03-.66.53l-1.52 8.82q-.1.56-.66.58l-5.09.23a.42.42 0 0 1-.43-.48zm6.27 5.53-.99 5.95q-.1.54.44.65c9.07 1.81 9.66-9.73 1.37-7.5q-.7.19-.82.9m43.63-6.77 5.08.47a.32.32 0 0 1 .29.37l-4.36 27.55a.32.32 0 0 1-.32.27l-4.88-.08a.32.32 0 0 1-.31-.37l4.16-27.94a.32.32 0 0 1 .34-.27"/><path fill="#002c8a" d="M751 120.54q-1.79.53-2.46 2.21.06.26-.04.47-.23.47-.71.31-1.03-.32-1.48.47-.3.52-.9.53l-8.1.14q-.62.01-.72.61l-1.49 8.79q-.07.43-.5.43h-5.55q-.96 0-.43-.8l.65-.97q.25-.37.2-.82c-.27-2.68.77-5.49 1.02-7.5q1.09-8.78 2.38-17.53.08-.57.66-.59c6.86-.18 22.85-2.99 19.19 10.16q-.86 3.08-1.72 4.09m-11.8-8.4-1.11 6.63q-.09.54.44.63c4.06.75 9.3-1.52 6.63-6.63q-.31-.6-.99-.67l-4.31-.47a.61.6-82.5 0 0-.66.51"/><path fill="#006d63" d="M196.71 111.5v11.75l-.75.5-.28 6.96q-.04.95-.45.09l-.74-1.56q-.24-.51-.8-.43c-12.5 1.84-26.01 1.49-38.35 1.47q-71.21-.1-142.42-.04c-3.3 0-7.67.02-9.63-2.99v-13c-.12 2.76 1.41 3.68 4.01 3.64q67.48-.96 134.96-.18c16.73.19 33.93-.57 50.89-.54q.47 0 .85-.29l1.72-1.3q.36-.28.29-.73-.28-1.82.7-3.35"/><path fill="#fff" d="M739.2 112.14a.61.6-82.5 0 1 .66-.51l4.31.47q.68.07.99.67c2.67 5.11-2.57 7.38-6.63 6.63q-.53-.09-.44-.63zm75.86-.29c8.29-2.23 7.7 9.31-1.37 7.5q-.54-.11-.44-.65l.99-5.95q.12-.71.82-.9"/><circle cx="430.16" cy="115.53" r="3.22"/><path fill="#002c8a" d="M754.5 121.21q2.73-1.73 4.46-4.46 3.04-1.39 6.34-1.09.55.05.93.45.53.56 1.35.41.42-.08.59.32.51 1.25 1.86.87.42-.11.44-.56c.05-1.81 4.61-1.01 5.54-.64q.39.16.33.57l-2.77 17q-.09.54-.63.52l-4.69-.17q-.49-.01-.51-.51-.01-.15.05-.33.24-.74-.52-.63-1.19.17-2.79 1.11c-3.19 1.87-7.84 1.28-10.09-1.9q-3.46-4.88.11-10.96m13.53.702a5.27 4.48-41.3 0 0-6.917.112 5.27 4.48-41.3 0 0-1.002 6.844 5.27 4.48-41.3 0 0 6.916-.112 5.27 4.48-41.3 0 0 1.002-6.844Z"/><path fill="#009be1" d="M842.05 133.05c-2.62 1.11-5.33 2.63-8.16 1.83-13.75-3.91-1.44-25.89 10.32-17.26q.44.33.82-.08 2.4-2.58 6-1.13.51.2.43.75l-2.7 17q-.06.42-.48.42l-4.37-.04q-.66 0-.9-.63l-.19-.53q-.21-.57-.77-.33m1.17-11.071a5.24 4.48-39.9 0 0-6.894-.076 5.24 4.48-39.9 0 0-1.146 6.798 5.24 4.48-39.9 0 0 6.894.076 5.24 4.48-39.9 0 0 1.146-6.798"/><path fill="#002c8a" d="M788.82 126.03a.92.92 0 0 0 1.63.29c3.11-4.26 6-12.22 12.36-10q.48.17.19.59-7.73 11.05-15.34 22.15c-1.84 2.69-3.91 3.1-6.86 2.27q-.7-.19-.27-.79l4.5-6.28a2.28 2.26 53.9 0 0 .31-2.05l-5.24-15.36q-.28-.83.59-.82l4.56.05q.75.01.95.73z"/><path fill="#003" d="M758.96 116.75q-1.73 2.73-4.46 4.46 1.14-3.27 4.46-4.46m-7.96 3.79q-.58 1.84-2.46 2.21.67-1.68 2.46-2.21"/><ellipse fill="#fff" rx="5.27" ry="4.48" transform="rotate(-41.3 548.391 -951.006)"/><ellipse fill="#fff" rx="5.24" ry="4.48" transform="rotate(-39.9 592.253 -1093.31)"/><path fill="#035f3f" d="m196.71 123.25.05 20.46-192.86.05q-.56 0-.57-.56l-.04-9.95q.26.58.22 1.18-.03.47.42.59c5.41 1.37 12.24 1.11 16.08 1.36 13.05.86 26.39-.17 39.49-.12 44.38.17 88.75-.1 133.12.12q.56 0 .64.54.09.54.73.32.5-.17.59.34l.24 1.23q.03.16.17.08l.33-.2q.27-.16.28-.47l.36-14.47z"/><path fill="#00654c" d="m195.96 123.75-.36 14.47q-.01.31-.28.47l-.33.2q-.14.08-.17-.08l-.24-1.23q-.09-.51-.59-.34-.64.22-.73-.32-.08-.54-.64-.54c-44.37-.22-88.74.05-133.12-.12-13.1-.05-26.44.98-39.49.12-3.84-.25-10.67.01-16.08-1.36q-.45-.12-.42-.59.04-.6-.22-1.18v-6c1.96 3.01 6.33 2.99 9.63 2.99q71.21-.06 142.42.04c12.34.02 25.85.37 38.35-1.47q.56-.08.8.43l.74 1.56q.41.86.45-.09z"/><path fill="#003d83" d="m199.04 145.25.92.75-.27 1H6.19q-1.46-1.11-3.44-.96 97.91-.12 195.81-.04.59 0 .48-.75"/></svg>