<svg xmlns="http://www.w3.org/2000/svg" viewBox="0 0 1181 236"><g fill="none" stroke-width="2"><path stroke="#d4d3d4" d="m1181 49.32-.51-16.94q-.01-.38-.28-.11-.14.15-.16.3-.21 1.65.06 3.92" vector-effect="non-scaling-stroke"/><path stroke="#f6f8fa" d="m1180.11 36.49-.14 8.86q0 .4-.25.08-.11-.14-.19-.3-.1-.23-.09-.68c.06-2.01-1.55-2.36-3.23-1.98q-6.61 1.5-13.29.69-2.97-.36-5.83-.09c-16.9 1.57-32.97-.18-48.83.31-8.97.28-18.05.63-27.02.23-7.86-.35-13.93-.15-21 .11-10.8.4-21.77-.61-32.68-.51-3.37.03-6.95.12-10.26-.24-6.95-.74-14.29.53-21.36.36-12.18-.29-24.33.19-36.5-.05-7.84-.16-16.15-.56-23.91.66-1.09.17-2.55-.45-3.66-.43-6.69.08-13.45-.21-20.15 1.09-6.06 1.19-10.03-.18-15.24.03-2.45.1-5.12-.64-7.95.28a1.42 1.38-42.5 0 1-.96-.03c-4.26-1.68-6.91 1.07-10.53-.5q-.46-.2-.95-.14c-5.82.75-11.74.18-17.03-.15-4.37-.27-7.88-1.58-12.22.33a.69.67-28.3 0 1-.84-.24q-1.36-2.04-1.56-4.91" vector-effect="non-scaling-stroke"/><path stroke="#d4d3d4" d="M844.44 39.27q-1.77-25.18 22.74-26.42" vector-effect="non-scaling-stroke"/><path stroke="#e5ebef" d="M867.18 12.85c6.11-.31 13.47.14 18.18.14q124.65.01 249.31.01c2.62 0 6.19-.41 9.33-.21q.48.03 1.01-.3.39-.24-.07-.24l-277.67-.09" vector-effect="non-scaling-stroke"/><path stroke="#d4d3d4" d="M867.27 12.16q-7.66.58-12.27 2.89c-14.01 7.02-10.96 23.1-10.9 36.16" vector-effect="non-scaling-stroke"/><path stroke="#e5ebef" d="m844.1 51.21-.32 116.54" vector-effect="non-scaling-stroke"/><path stroke="#d4d3d4" d="M843.78 167.75q.14 15.28.24 30.57c.08 10.97 1.85 18.46 12.19 22.65" vector-effect="non-scaling-stroke"/><path stroke="#e5ebef" d="M856.21 220.97q2.69 1.81 4.79 1.83 88.69.6 301 .06 5.45-.02 10.06-3.84" vector-effect="non-scaling-stroke"/><path stroke="#d4d3d4" d="M1172.06 219.02c8.28-5.69 8.87-13.64 8.74-22.92q-.27-18.65.2-37.29" vector-effect="non-scaling-stroke"/><path stroke="#e5ebef" d="m0 174.68.38 4.78" vector-effect="non-scaling-stroke"/><path stroke="#d4d3d4" d="m.38 179.46-.1 14.04" vector-effect="non-scaling-stroke"/><path stroke="#f58e92" d="M.28 193.5c-.12 12.8-.34 22.2 12.82 28.06" vector-effect="non-scaling-stroke"/><path stroke="#d4d3d4" d="M13.1 221.56q3.86 1.22 7.9 1.24 135.7.49 295.75.04 10.07-.02 15.73-8.32" vector-effect="non-scaling-stroke"/><path stroke="#e5ebef" d="M332.48 214.52q2.83-3.61 3.69-8.53" vector-effect="non-scaling-stroke"/><path stroke="#d4d3d4" d="M336.17 205.99c.31-2.62.66-5.34.68-7.99q.37-88.1.08-148.81-.02-2.95-.42-14.17" vector-effect="non-scaling-stroke"/><path stroke="#f58e92" d="M336.51 35.02q.13-5.53-1.62-9.99" vector-effect="non-scaling-stroke"/><path stroke="#d4d3d4" d="M334.89 25.03c-7.15-14.77-22.14-13.02-35.64-13.02q-135.83-.02-271.67 0C14.6 12.01-.52 16.79.52 32.89q.01.05.05.05h.04q.1-.01.1-.12.1-10.07 7.66-15.71c8.86-6.62 25.88-4.15 37.54-4.14q173.85.17 268.28-.08 14.36-.04 20.42 12.43" vector-effect="non-scaling-stroke"/><path stroke="#f58e92" d="M334.61 25.32q1.72 4.57 1.37 9.68" vector-effect="non-scaling-stroke"/><path stroke="#d4d3d4" d="M335.98 35q-.12 1.24.3 1.23" vector-effect="non-scaling-stroke"/><path stroke="#f6f8fa" d="M336.28 36.23q.23 5.06-1.55 8.61a1.23 1.23 0 0 1-.72.62q-4.21 1.32-6.27.83-7.11-1.72-14.34-1.18c-2.49.18-5-.26-7.6-.03-6.44.57-12.59.1-19.8.67-1.49.12-3.91-.4-5.77-.4q-8.94.02-17.89-.2c-2.63-.07-6.48.76-10-.21a1.8 1.77-45.6 0 0-.98.02c-2.91.88-6.26.01-8.27.03q-19.24.19-25.65-.02-34.13-1.11-46.44-.16-8.34.65-13.29.48c-2.56-.08-5.13.49-7.83.24q-4.94-.47-5.8-.46c-35.76.4-72.55.96-107.41.05-2.3-.06-4.8.57-7.45.23-8.85-1.14-17.55-.38-26.29 1.29q-.64.12-.92-.47L.43 42.76q-.08-.18-.14 0-.16.46-.07 1.2" vector-effect="non-scaling-stroke"/><path stroke="#e5ebef" d="M.22 43.96 0 55.45" vector-effect="non-scaling-stroke"/><path stroke="#faf1e6" d="M445.78 12.52c-12.73-.95-23.96 7.67-24.02 20.73-.1 21.27-.79 42.55-.71 63.81q.12 32.61.26 65.22 0 .18.08.28.11.12.26.19" vector-effect="non-scaling-stroke"/><path stroke="#e5ebef" d="m421.65 162.75-.05 38.73" vector-effect="non-scaling-stroke"/><path stroke="#d4d3d4" d="m421.6 201.48 1.18 6.59" vector-effect="non-scaling-stroke"/><path stroke="#faf1e6" d="M422.78 208.07q1.56 6.24 6.38 9.96" vector-effect="non-scaling-stroke"/><path stroke="#d4d3d4" d="M429.16 218.03c3.54 3.25 7.4 4.81 12.52 4.82q131.52.29 263.05.1c10.57-.01 24.89.29 37.12-.3" vector-effect="non-scaling-stroke"/><path stroke="#f58e92" d="M741.85 222.65c12.96-2.71 16.88-12.23 16.89-24.4q.04-44.63-.02-89.24" vector-effect="non-scaling-stroke"/><path stroke="#a2929f" d="m758.72 109.01.01-64.26" vector-effect="non-scaling-stroke"/><path stroke="#d4d3d4" d="m758.73 44.75-.11-14.49" vector-effect="non-scaling-stroke"/><path stroke="#f58e92" d="M758.62 30.26q-.64-3.9-2.66-7.29" vector-effect="non-scaling-stroke"/><path stroke="#d4d3d4" d="M755.96 22.97c-4.78-8.44-12.96-10.84-22.46-10.86q-141.84-.22-283.69-.07-1.03 0-4.03.48" vector-effect="non-scaling-stroke"/><path stroke="#ca6166" d="m755.96 22.97-.45.03" vector-effect="non-scaling-stroke"/><path stroke="#d3d0ce" d="M755.51 23q-5.11-8.54-14.01-9.75c-9.7-1.32-24.46-.26-32.33-.26q-131.56.05-263.2-.04" vector-effect="non-scaling-stroke"/><path stroke="#cfc4bb" d="M445.97 12.95q.11-.45-.19-.43" vector-effect="non-scaling-stroke"/><path stroke="#f9eee1" d="M445.97 12.95q-17.86-.21-22.42 13.97-1.54 4.77-1.46 18.52.21 37.8-.16 75.59c-.02 1.21.71 2.89.84 4.22a.07.07 0 0 0 .14.02q.04-.12.08-.26a.24.23-38.6 0 1 .46.05q.06 1.37 1 2.38.45.47.7-.12l.46-1.06q.27-.64.92-.38c2.2.89 3.99 1.78 6.4 1.98 11.6.97 20.96-.3 31.56-1.31 4.22-.4 11.48-.22 17.27-1.55q.49-.11 1.37.25.37.15.63-.15l1.36-1.59" vector-effect="non-scaling-stroke"/><path stroke="#f07f79" d="M485.12 123.51c5.32 51.74 66 75.63 105.2 41.07" vector-effect="non-scaling-stroke"/><path stroke="#f7c475" d="M590.32 164.58c39.22 34.56 98.58 10.95 105.11-40.01" vector-effect="non-scaling-stroke"/><path stroke="#f9eee1" d="M695.43 124.57q.03.55.44 1.06.29.37.75.52 1 .31 1.47 1.12.25.44.62.79 2.31 2.16 5.07 1.15a.71.71 0 0 1 .88.35q.47.94 1.34.4.12-.08.08-.21-.04-.14-.09-.29-.13-.43.32-.43c1.31.02 2.6-.35 3.86-.16 8.01 1.24 16.57 3.03 24.72 2.2q9.49-.97 19.35-1.12a2.47 2.46 84.7 0 1 2.47 2.06q.86 5.22 1.08 11.61 0 .06.05.06.04.01.07.01a.13.12 0 0 0 .13-.12l.16-15.08" vector-effect="non-scaling-stroke"/><path stroke="#f07f79" d="M758.2 128.49c.1 24.82.98 50.18-.18 74.95-.45 9.56-6.61 17.01-16.26 18.62" vector-effect="non-scaling-stroke"/><path stroke="#cfc4bb" d="M741.76 222.06c-12.35.87-25.09.2-37.51.16q-132.59-.37-265.19-.04-3.3.01-9.9-4.15M422.78 208.07l-.84-6.57" vector-effect="non-scaling-stroke"/><path stroke="#e0ddd6" d="m421.94 201.5-.29-38.75" vector-effect="non-scaling-stroke"/><path stroke="#f48b8c" d="M755.51 23q2.01 3.41 2.57 7.26" vector-effect="non-scaling-stroke"/><path stroke="#d3d0ce" d="m758.08 30.26.12 14.49" vector-effect="non-scaling-stroke"/><path stroke="#a18f9a" d="m758.2 44.75.07 50.99" vector-effect="non-scaling-stroke"/><path stroke="#f48b8c" d="m758.27 95.74-.07 32.75" vector-effect="non-scaling-stroke"/><path stroke="#fbd088" d="M695.43 124.57c4.77-52.1-49.3-86.76-94.64-61.28q-3.66 2.06-10.77 7.52" vector-effect="non-scaling-stroke"/><path stroke="#f48b8c" d="M590.02 70.81c-26.11-23.14-65.85-21.04-89.11 4.98q-17.52 19.58-15.79 47.72" vector-effect="non-scaling-stroke"/><path stroke="#ca6166" d="M758.62 30.26h-.54" vector-effect="non-scaling-stroke"/><path stroke="#f26120" d="m590.02 70.81-5.43 6.14a.64.64 0 0 0 .53 1.07c6.59-.52 12.56-2.03 15.68 5.62q.21.5-.34.51-9.27.22-18.53.09c-3.62-.05-4.49 3.32-5.79 5.89a.58.58 0 0 0 .51.84c9.28.13 18.89-.69 28.04.14a.95.95 0 0 1 .8.63l1.88 5.54a.52.52 0 0 1-.49.69l-32.91.09q-1.24 0-1.6 1.19l-1.58 5.24" vector-effect="non-scaling-stroke"/><path stroke="#f58e92" d="m570.79 104.49-6.51-.41" vector-effect="non-scaling-stroke"/><path stroke="#982032" d="m564.28 104.08-3.39 4.19" vector-effect="non-scaling-stroke"/><path stroke="#f58e92" d="M560.89 108.27c-5.76-.77-13.79-1.25-15.92 4.96" vector-effect="non-scaling-stroke"/><path stroke="#772845" d="m544.97 113.23-2.21.31" vector-effect="non-scaling-stroke"/><path stroke="#f58e92" d="M542.76 113.54c-2.79-7.24-10.65-6.33-16.76-4.19q-.48.17-.53.68l-.45 4.71" vector-effect="non-scaling-stroke"/><path stroke="#982032" d="M525.02 114.74q-.51.54-.5 1.14.01.58.57.46 3.54-.71 7.13-.61 1.02.02 1.33.6.34.63.22 1.71" vector-effect="non-scaling-stroke"/><path stroke="#f58e92" d="M533.77 118.04q-8.22-.72-11.45 5.13" vector-effect="non-scaling-stroke"/><path stroke="#982032" d="M522.32 123.17q-.5.86-2.11-.01" vector-effect="non-scaling-stroke"/><path stroke="#f58e92" d="m520.21 123.16 3.31-20.16a.56.55-86.6 0 0-.57-.65l-10.24.38" vector-effect="non-scaling-stroke"/><path stroke="#982032" d="M512.71 102.73c-4.17 4.18-3.68 8.41-6.51 12.96" vector-effect="non-scaling-stroke"/><path stroke="#f58e92" d="m506.2 115.69-.18-12.91a.54.54 0 0 0-.54-.53h-8.46q-.45 0-.76.33-.4.42-.22.93" vector-effect="non-scaling-stroke"/><path stroke="#982032" d="m496.04 103.51-1.16.56a1.27 1.25 82.3 0 0-.7.93l-4.91 29.66q-.23 1.4 1.17 1.56 2.61.31 4.95-.52.51-.18.73-.68.15-.36.13-.75" vector-effect="non-scaling-stroke"/><path stroke="#f58e92" d="M496.25 134.27q.82.09.94-.53.63-3.33 1.67-7.79" vector-effect="non-scaling-stroke"/><path stroke="#772845" d="M498.86 125.95q1.95 4.45.82 9.11-.13.53.39.68 3.81 1.14 6.32-1.06" vector-effect="non-scaling-stroke"/><path stroke="#f58e92" d="m506.39 134.68 3.6-9.37" vector-effect="non-scaling-stroke"/><path stroke="#982032" d="M509.99 125.31q1.09 4.91-.39 9.82-.15.5.35.63 4.83 1.2 6.85-1.35" vector-effect="non-scaling-stroke"/><path stroke="#f58e92" d="M516.8 134.41q1.91-.52 2.21-2.43" vector-effect="non-scaling-stroke"/><path stroke="#982032" d="M519.01 131.98q3.04 4.96 6.74 4.95 3.29-.01 11.77-1.03 2.14-.26 4.76.32 3.66.8 7.43.67c3.12-.11 5.36-1.62 8.26-2.78q.48-.19.86.15 6.55 5.68 12.18-.64" vector-effect="non-scaling-stroke"/><path stroke="#f58e92" d="M571.01 133.62q-.41-2.69.41-5.14.25-.74-.48-.45-1.9.78-3.36-.53-.39-.34-.31-.86l1.78-11.26q.11-.72.83-.67l2.46.17a.51.51 0 0 0 .54-.46l.58-5.67a.46.45 2.8 0 0-.46-.5h-2.44q-.59 0-.44-.57l.94-3.41" vector-effect="non-scaling-stroke"/><path stroke="#f26120" d="m571.06 104.27 37.19.03q1.99 0 1.73 1.98-.12.82.52 2.01" vector-effect="non-scaling-stroke"/><path stroke="#f58e92" d="M610.5 108.29q-3.67-.49-5.86 2.84-.15.23-.35.03l-.25-.24q-.32-.33-.13-.75.72-1.61-.9-1.91-3.41-.64-5.26.66" vector-effect="non-scaling-stroke"/><path stroke="#982032" d="m597.75 108.92-3.57 6.24" vector-effect="non-scaling-stroke"/><path stroke="#f58e92" d="M594.18 115.16c-3.26-9.37-13.62-9.23-18.55-1.76-3.46 5.25-4.39 15.21 1.62 19.29q5.57 3.79 14.35 1" vector-effect="non-scaling-stroke"/><path stroke="#982032" d="M591.6 133.69q-.12 3.65 6.51 2.37.36-.07.37-.44.02-.59.63-1.42" vector-effect="non-scaling-stroke"/><path stroke="#f58e92" d="M599.11 134.2q1.75.45 1.89-.7 1.05-8.75 3.2-15.77" vector-effect="non-scaling-stroke"/><path stroke="#772845" d="m604.2 117.73 2.27.19q.61.05.56.66-.58 7.46 2.39 13.5" vector-effect="non-scaling-stroke"/><path stroke="#f26120" d="m609.42 132.08-1.36 4.95a1.36 1.35-82 0 1-1.3.99l-32.69-.06q-1.15-.01-.72 1.06l1.97 4.94q.22.54.8.54h27.79q.86 0 .5.79l-2.47 5.39a1.08 1.07-77.4 0 1-.97.62l-21.24-.18a.34.34 0 0 0-.29.52c1.22 1.88 3.62 6.28 6.13 6.31q5.05.08 9.9.04a.51.51 0 0 1 .37.87l-5.52 5.72" vector-effect="non-scaling-stroke"/><path stroke="#7e6d41" d="M609.42 132.08q5.57 6.22 13.39 4.29c1.87-.47 3.09-1.99 5.53-1.9a1.26 1.22 68.9 0 1 .85.39c2.87 3.13 6.56 1.88 9.89.41q.43-.19.85.03 2.67 1.4 5.66.53.48-.14.61-.48.12-.35.05-.86" vector-effect="non-scaling-stroke"/><path stroke="#fcd38e" d="M646.25 134.49q1.61-.45 2.18.99" vector-effect="non-scaling-stroke"/><path stroke="#886721" d="M648.43 135.48q4.69 1.73 7.48-.87" vector-effect="non-scaling-stroke"/><path stroke="#fcd38e" d="M655.91 134.61q1.49-.9 1.59-2.11.55-6.61 2.48-12.72" vector-effect="non-scaling-stroke"/><path stroke="#886721" d="M659.98 119.78q.6-.1 1.2-1.35.42-.86 1.55-.62a.44.44 0 0 1 .32.59q-1.99 5.47-.93 10.84c1.25 6.32 6.59 9.46 12.5 6.06q.4-.23.82-.03 4.26 2.04 7.93-.61" vector-effect="non-scaling-stroke"/><path stroke="#fcd38e" d="M683.37 134.66q.95-.59 1.05-1.23 2.54-15.04 4.87-30.32a.63.63 0 0 0-.51-.72q-4.13-.75-6.55.83" vector-effect="non-scaling-stroke"/><path stroke="#886721" d="M682.23 103.22q-2.02 2.46-2.43 6.29" vector-effect="non-scaling-stroke"/><path stroke="#fcd38e" d="M679.8 109.51q-6.71-3.71-11.59 1.8" vector-effect="non-scaling-stroke"/><path stroke="#886721" d="M668.21 111.31q-1.21-.12-2.87 1.6" vector-effect="non-scaling-stroke"/><path stroke="#fcd38e" d="m665.34 112.91.6-2.71a1.41 1.4 80.7 0 0-2.09-1.51q-1.8 1.08-3.18 2.84a.38.38 0 0 1-.66-.32l.44-1.99q.12-.52-.41-.62-2.18-.38-4.28-.41-1.95-.02-1.89 1.52" vector-effect="non-scaling-stroke"/><path stroke="#886721" d="M653.87 109.71q-1.83-.53-2.36 4.89" vector-effect="non-scaling-stroke"/><path stroke="#fcd38e" d="M651.51 114.6c-3.69-7.94-10.47-7.9-17.75-5.34q-1.17.42-1.15 1.43" vector-effect="non-scaling-stroke"/><path stroke="#886721" d="M632.61 110.69q-.6-.01-.95.12-.34.13-.39.71-.23 2.32-.4 4.73-.04.5.45.37c2.06-.57 9.45-1.98 10.44.79" vector-effect="non-scaling-stroke"/><path stroke="#fcd38e" d="M641.76 117.41c-4.42 1.48-8.04.13-11.19 5.08" vector-effect="non-scaling-stroke"/><path stroke="#7e6d41" d="M630.57 122.49q-2.73 1.27-2.83 4.39" vector-effect="non-scaling-stroke"/><path stroke="#fcd38e" d="M627.74 126.88c-13.21 5.21-14.08-9.27-8.37-15.71" vector-effect="non-scaling-stroke"/><path stroke="#886721" d="M619.37 111.17q4.84-1.61 9.07.93.39.24 1.35-1.96" vector-effect="non-scaling-stroke"/><path stroke="#fcd38e" d="M629.79 110.14q1.56-.05 2.24-5.21.22-1.62-1.71-2.19-8.49-2.47-14.85 2.02" vector-effect="non-scaling-stroke"/><path stroke="#7e6d41" d="M615.47 104.76c-1.72.16-3.22 2.7-4.97 3.53" vector-effect="non-scaling-stroke"/><path stroke="#fcd38e" d="M571.06 104.27q-.14.11-.27.22" vector-effect="non-scaling-stroke"/><path stroke="#babfc3" d="m421.94 201.5-.34-.02" vector-effect="non-scaling-stroke"/><path stroke="#ca6166" d="M741.85 222.65q-.19-.44-.09-.59" vector-effect="non-scaling-stroke"/><path stroke="#982032" d="m758.72 109.01-.45-13.27" vector-effect="non-scaling-stroke"/><path stroke="#766574" d="M758.73 44.75h-.53" vector-effect="non-scaling-stroke"/><path stroke="#8199b2" d="M630.57 122.49c-3.38 5.02-1.08 12.86 5.92 12.48q1.98-.11 5.48-2.5.53-.35.53.28v.93q0 .57.57.6l3.18.21M604.2 117.73q.66-1.94 2.92-1.76.5.03.67-.43l2.71-7.25" vector-effect="non-scaling-stroke"/><path stroke="#a2929f" d="m599.11 134.2-4.49-.04q-.61 0-.52-.6l3.65-24.64" vector-effect="non-scaling-stroke"/><path stroke="#f58e92" d="m560.31 113.99-2.08.04" vector-effect="non-scaling-stroke"/><path stroke="#a2929f" d="M558.23 114.03c-2.93-.11-7.57-.91-6.67 3.15" vector-effect="non-scaling-stroke"/><path stroke="#f58e92" d="M551.56 117.18q4.3 2.08 7.36 5.44" vector-effect="non-scaling-stroke"/><path stroke="#8199b2" d="M549.94 129.03q2.19-.24 2.94-2.2a.8.79 30.9 0 0-.23-.9c-4.55-3.78-10.7-4.84-7.68-12.7" vector-effect="non-scaling-stroke"/><path stroke="#a2929f" d="M506.2 115.69q-.59 2.69.01 5.53.17.81.42.03l6.08-18.52M520.21 123.16l-1.2 8.82M516.8 134.41l-4.53-.21q-.67-.03-.57-.69l3.19-20.66a.34.34 0 0 0-.66-.16l-4.24 12.62" vector-effect="non-scaling-stroke"/><path stroke="#8199b2" d="m506.39 134.68-3.65-.44q-.57-.07-.58-.64l-.67-22.88a.1.1 0 0 0-.19-.01l-2.44 15.24" vector-effect="non-scaling-stroke"/><path stroke="#a2929f" d="m496.25 134.27-4.62-.01a.62.62 0 0 1-.61-.73l5.02-30.02M594.18 115.16q.31 3.67-.88 7.97" vector-effect="non-scaling-stroke"/><path stroke="#f58e92" d="M593.3 123.13q-.9.76-1.75.63" vector-effect="non-scaling-stroke"/><path stroke="#a2929f" d="M591.55 123.76q-5.71-.02-11.3.11-.67.02-.45 1.8" vector-effect="non-scaling-stroke"/><path stroke="#f58e92" d="M579.8 125.67q3.22 5.89 13.05 1.66" vector-effect="non-scaling-stroke"/><path stroke="#a2929f" d="m592.85 127.33-1.25 6.36" vector-effect="non-scaling-stroke"/><path stroke="#8199b2" d="m542.76 113.54-.62 7.16" vector-effect="non-scaling-stroke"/><path stroke="#a2929f" d="M533.77 118.04q1.95.21 2.19-.76c1.31-5.25-8.55-3.1-10.94-2.54" vector-effect="non-scaling-stroke"/><path stroke="#982032" d="M592.85 127.33q1.53-1.74.45-4.2" vector-effect="non-scaling-stroke"/><path stroke="#a2929f" d="M564.28 104.08q-2.13 12.07-3.81 23.66c-1.11 7.71 5.23 8 10.54 5.88M522.32 123.17c-3.89 8.83 4.38 16 11.83 9.06q.64-.59.61.28l-.04 1.31q-.02.43.41.43h4.38a.65.65 0 0 0 .64-.54l1.99-13.01" vector-effect="non-scaling-stroke"/><path stroke="#242c52" d="M542.14 120.7q2.83 4.02 7.29 6.35.64.34.74.77.12.55-.23 1.21" vector-effect="non-scaling-stroke"/><path stroke="#a2929f" d="m549.94 129.03-6.86-.83a.61.6 12.1 0 0-.65.42c-.62 1.97-1.28 5.04 1.22 5.69q8.16 2.12 14.27-2.63a1.12 1.1-17.4 0 0 .43-.81l.57-8.25" vector-effect="non-scaling-stroke"/><path stroke="#982032" d="M558.92 122.62q1.76-3.95 1.39-8.63" vector-effect="non-scaling-stroke"/><path stroke="#a2929f" d="M560.31 113.99q-.47-3.01.58-5.72" vector-effect="non-scaling-stroke"/><path stroke="#8c9392" d="m683.37 134.66-4.64-.4q-.51-.04-.69-.52l-.26-.72q-.24-.64-.73-.17c-4.84 4.58-11.45 1.22-12.76-4.85q-2.08-9.66 3.92-16.69M679.8 109.51q.13 1.23.97 1.27a.6.59-84.8 0 0 .62-.52l.84-7.04M629.79 110.14q-5.98-3.6-10.42 1.03" vector-effect="non-scaling-stroke"/><path stroke="#8199b2" d="m627.74 126.88-.3 6.06q-.03.52-.51.74c-7.85 3.65-16.16-.71-17.48-9.35q-1.74-11.48 6.02-19.57" vector-effect="non-scaling-stroke"/><path stroke="#8c9392" d="m665.34 112.91-1.23 2.26q-.25.46-.75.62-2.75.87-3.38 3.99M655.91 134.61l-4.86-.42q-.57-.05-.49-.62l3.31-23.86M651.51 114.6l-3.08 20.88M641.76 117.41q.64.79 1.57.57.48-.11.59-.59c1.27-5.36-8.35-3.24-10.74-2.59q-.56.15-.43-.41.45-2.12-.14-3.7" vector-effect="non-scaling-stroke"/><path stroke="#982032" d="M558.23 114.03q.3 1.75-.98 1.72-3.44-.08-5.69 1.43M579.8 125.67c2.87-.41 10.17.85 11.75-1.91" vector-effect="non-scaling-stroke"/><path stroke="#e5ebef" d="M1157.226 12.845a1.84.24 3.9 0 0-1.82-.364 1.84.24 3.9 0 0-1.852.114 1.84.24 3.9 0 0 1.82.364 1.84.24 3.9 0 0 1.852-.114" vector-effect="non-scaling-stroke"/><path stroke="#ca6166" d="M334.89 25.03q-.14.15-.28.29" vector-effect="non-scaling-stroke"/><path stroke="#babfc3" d="M867.18 12.85q.09.45.09-.69" vector-effect="non-scaling-stroke"/><path stroke="#cbccce" d="m844.44 39.27.35 11.71" vector-effect="non-scaling-stroke"/><path stroke="#babfc3" d="M844.79 50.98q-.36.23-.69.23" vector-effect="non-scaling-stroke"/><path stroke="#ca6166" d="m336.51 35.02-.53-.02" vector-effect="non-scaling-stroke"/><path stroke="#babfc3" d="M1172.06 219.02q8.08-6.63 8.14-17.78.19-33.25-.23-66.48" vector-effect="non-scaling-stroke"/><path stroke="#cbccce" d="m1179.97 134.76.14-98.27" vector-effect="non-scaling-stroke"/><path stroke="#babfc3" d="m336.17 205.99-.04-115.75" vector-effect="non-scaling-stroke"/><path stroke="#cbccce" d="m336.13 90.24.15-54.01" vector-effect="non-scaling-stroke"/><path stroke="#dce4e9" d="M336.13 90.24q-.49.49-.44 1.46.02.38-.26.11l-.2-.21q-.31-.3-.74-.24c-2.9.45-5.22.77-8.29.27-7.87-1.28-17.07-.08-22.81-.12-4.96-.03-9.76-.58-14.74-.31-3.92.21-7.48-.69-11.55-.13-2.22.3-4.2-.14-6.44.08q-1.14.12-1.57.98-.21.42-.68.48-.41.04-.87-.12" vector-effect="non-scaling-stroke"/><path stroke="#78a5ca" d="m267.54 92.49-2.4-11.52a1.18 1.16 84.5 0 0-1.13-.94q-7.49-.11-15.48.04c-7.43.14-8.83 5.31-11.79 12.4q-10.14 24.27-19.99 48.1" vector-effect="non-scaling-stroke"/><path stroke="#dce4e9" d="M216.75 140.57q-2.02-.32-2.72-.97a.63.63 0 0 0-.5-.17l-3.6.38" vector-effect="non-scaling-stroke"/><path stroke="#78a5ca" d="M209.93 139.81c4.65-12.68-.28-20.94-10.68-27.22-4.01-2.42-11.46-5.27-13.94-8.64-3.48-4.74 2.13-8.87 6.63-9.32q10.07-1.01 19.4 3.35a.36.36 0 0 0 .5-.26q1.25-6.67 2.07-13.49.36-2.95-1.79-3.35-1.12-.2-1.21-.23c-17.76-5-42.86-1.27-46.97 20.37" vector-effect="non-scaling-stroke"/><path stroke="#dce4e9" d="m163.94 101.02-11.53-.04" vector-effect="non-scaling-stroke"/><path stroke="#78a5ca" d="m152.41 100.98 3.2-20.25q.08-.5-.42-.51l-18.35-.3a.61.6-85.1 0 0-.61.52l-5.09 32.63" vector-effect="non-scaling-stroke"/><path stroke="#dce4e9" d="M131.14 113.07q-.97-.38-1.6-1.02-.26-.28-.58-.07-1.04.66-1.63-.22a1.37 1.31-1.3 0 0-.47-.43q-3.7-1.94-7.84-2.15-.55-.02-.88.42l-.32.44q-.29.4-.75.22l-.94-.35" vector-effect="non-scaling-stroke"/><path stroke="#78a5ca" d="m116.13 109.91 11.86-29.17a.54.54 0 0 0-.5-.74h-18.95a.96.95 10 0 0-.9.62L89 130.39q-.35.94-.55-.04l-1.53-7.62" vector-effect="non-scaling-stroke"/><path stroke="#91acc6" d="M86.92 122.73q-1.48-3.18-1.28-5.08" vector-effect="non-scaling-stroke"/><path stroke="#f3cc88" d="M85.64 117.65q-2.7-15.09-5.73-29.58c-1.13-5.43-3.69-7.37-9.3-7.94-10.12-1.03-20.87-.02-30.97-.14a.75.75 0 0 0-.57 1.24q.27.31 1.04.54c4.14 1.24 17.34 5.66 19.65 8.98" vector-effect="non-scaling-stroke"/><path stroke="#78a5ca" d="m59.76 90.75 4.83 18.49" vector-effect="non-scaling-stroke"/><path stroke="#dce4e9" d="m64.59 109.24-.62 1.49q-.12.27-.31.05-.79-.89-1.99-.42c-4.73 1.84-9.79 2.74-14.34 3.22-3.35.36-6.6-.91-9.64-.27-5.26 1.1-8.31 1.94-13.28-.31-6.52-2.95-14.88-2.49-21.73-1.05q-.26.06-.4-.17l-.21-.36q-.4-.67-.32.1.02.27 0 .49a.12.12 0 0 1-.24-.02c.05-2.18-.54-4.43-.53-6.41Q1.16 75.29.73 45q0-.45-.51-1.04M1179.97 134.76c-3.96-.28-7.39 1.47-11 .91q-10.62-1.64-21.28-2.99-.53-.07-1.01.17l-2.86 1.38q-.58.28-1.02-.18l-3.53-3.67q-.48-.5.2-.36.29.07.57.16.21.08.21-.15v-.34q-.01-.38-.39-.43l-.73-.07" vector-effect="non-scaling-stroke"/><path stroke="#91acc6" d="M1139.13 129.19q3.87-17.21 7.59-34.45.37-1.72.26-3.7-.03-.54-.56-.62c-5.07-.8-11.82-2.27-13.31 4.5q-3.33 15.23-6.79 31.18" vector-effect="non-scaling-stroke"/><path stroke="#dce4e9" d="M1126.32 126.1q-1.65-1.8-2.93-2.23-.81-.27-1.18-.33-.76-.14-1.2.64-.24.43-.58.07l-.99-1.07" vector-effect="non-scaling-stroke"/><path stroke="#91acc6" d="M1119.44 123.18c1.94-8.27 4.47-17.4-6.5-19.85q-11.17-2.5-22.34-.03c-5.57 1.22-7.19 4.25-6.43 10.09q.06.48.53.36c4.64-1.19 21.39-5.98 22.86 1.9a2.02 2.01 83.7 0 1-1.9 2.38c-9.48.37-21.31 1.66-28.08 8.74" vector-effect="non-scaling-stroke"/><path stroke="#dce4e9" d="m1077.58 126.77.3-2.2q.08-.55-.38-.87l-2.56-1.76q-.34-.23-.74-.15-1.02.19-1.21-.73-.13-.67-.53-.12l-.61.85a.24.24 0 0 1-.4-.26q.34-.58 0-.64" vector-effect="non-scaling-stroke"/><path stroke="#91acc6" d="M1071.45 120.89c11.99-9.87 11-28.66-7.28-30.54q-13.02-1.33-26.14-.18a1.07 1.02 13.5 0 0-.76.44q-1.42 2.03-1.78 3.64-4.47 19.9-9.15 39.85" vector-effect="non-scaling-stroke"/><path stroke="#dce4e9" d="M1026.34 134.1q-1.54-.39-2.89-.81-.8-.25-1.27-.14-.88.21-1 1.11-.06.46-.52.47-3.48.09-6.96-.02c-1.03-.03-1.54-.52-1.78-1.45q-.15-.59-.55-.14-1.02 1.17-2.22.04" vector-effect="non-scaling-stroke"/><path stroke="#7892ad" d="m1009.15 133.16 16.82-28.6q.74-1.25-.71-1.42c-4.59-.53-12.92-1.8-15.72 3.16q-6.04 10.75-12.63 21.63a.58.58 0 0 1-1.07-.2q-1.5-8.82-3.05-17.89c-1.53-8.96-4.73-6.75-12.09-6.85q-3.03-.04-2.51 2.95l6.62 37.67" vector-effect="non-scaling-stroke"/><path stroke="#dce4e9" d="M984.81 143.61q-1.86-1.3-3.45-.15-.48.34-1 .06l-5.5-2.97a.61.59-34.5 0 0-.41-.07q-1.57.27-2.89-.49a.59.59 0 0 0-.74.13q-1.03 1.22-2.4.02" vector-effect="non-scaling-stroke"/><path stroke="#7892ad" d="M968.42 140.14q2.53-10.88 4.85-21.94c1.6-7.6.64-13.2-7.29-14.95q-10.84-2.39-21.66-.18c-6.61 1.35-7.3 3.58-7.46 10a.75.75 0 0 0 .98.73q6.83-2.29 13.65-2.46c3.77-.09 11.03.94 8.43 6.19q-.2.41-.65.43c-7.9.4-19.54 1.32-25.93 6.13-5.45 4.11-7.84 12.65-3.26 18.66" vector-effect="non-scaling-stroke"/><path stroke="#dce4e9" d="M930.08 142.75q-.12.29-1.01-.01-.65-.21-.43-.87.21-.62-.88-.34-.51.13-.51.22 0 .16-.01.31a.38.38 0 0 1-.5.35c-4.98-1.73-9.55-.85-14.34-1.35q-6.11-.64-12.27.06a2.05 2.03 52.2 0 1-.99-.13q-2.23-.92-4.16.28-.5.31-.96-.05-.89-.69-1.84-.54" vector-effect="non-scaling-stroke"/><path stroke="#7892ad" d="m892.18 140.68 2.63-11.01a3.52 3.51-82.3 0 1 3.54-2.7c13.67.48 31.53-3.29 33.74-19.61 1.12-8.21-3.47-15.43-11.87-16.88q-12.2-2.11-29.76-.42a.98.97 9.1 0 0-.78.56q-.75 1.65-1.4 4.39-5.75 24.56-11.23 49.2" vector-effect="non-scaling-stroke"/><path stroke="#dce4e9" d="M877.05 144.21q-.74.75-2.01.61-.47-.05-.91.13-.97.39-1.89.31c-2.94-.25-5.35.29-8.28-.1q-2.38-.32-4.76.07c-2.12.35-3.97-.21-6.15.22a1.88 1.83-37.6 0 1-1.11-.13q-2.17-1-4.21.19a.7.69 65.9 0 1-1.01-.39c-.58-1.78-1.61-3.58-1.62-5.48q-.22-43.19-.01-86.39.01-1.24-.3-2.27" vector-effect="non-scaling-stroke"/><path stroke="#6798bf" d="m64.59 109.24 12.16 45.92a.8.78 82.3 0 0 .76.59h19.47q.49 0 .67-.45l18.48-45.39M131.14 113.07l-6.6 42.38q-.09.55.46.55h18q.52 0 .6-.51l8.81-54.51M163.94 101.02c-.87 15.52 12.11 20.33 23.19 26.86 5.86 3.45 4.96 9.29-.82 11.84-7.9 3.49-19.71.26-27-3.48a.6.6 0 0 0-.86.43q-1.3 7.13-2.4 14.3-.3 2.01 1.61 2.6c16.99 5.23 43.81 5.9 52.27-13.76M216.75 140.57l-6.14 14.86q-.23.57.38.57h19.24a.8.78 9.2 0 0 .75-.53l3.52-10.12a1.24 1.24 0 0 1 1.19-.84l23.74.32a.67.67 0 0 1 .65.55l2.05 10.11q.1.51.63.51h16.48a.94.94 0 0 0 .92-1.12l-12.62-62.39" vector-effect="non-scaling-stroke"/><path stroke="#babfc3" d="M332.48 214.52q-7.01 8.38-18.46 7.81c-14.97-.74-34.87-.33-49.53-.34-81.09-.02-162.14.06-243.24.28q-3.88.01-7.88-1.08" vector-effect="non-scaling-stroke"/><path stroke="#db7a81" d="M13.37 221.19C.07 215.53.95 206.15.69 193.51" vector-effect="non-scaling-stroke"/><path stroke="#babfc3" d="m.69 193.51-.31-14.05" vector-effect="non-scaling-stroke"/><path stroke="#6785a2" d="M877.05 144.21q5.17 1.16 10.45.89c2.97-.15 4.24-1.65 4.68-4.42M930.08 142.75c6.33 6.65 17.62 3.61 23.77-1.33a.71.71 0 0 1 1.15.56v2.04a.89.88 5.1 0 0 .73.87q5.03.86 10.06-.08.47-.09.78-.46 1.43-1.76 1.85-4.21M984.81 143.61q.18 8.14-6.88 17.58-.74.99-.91 2.85-.04.48.44.56c4.74.73 12.13 1.45 14.5-2.4q4.61-7.47 17.19-29.04" vector-effect="non-scaling-stroke"/><path stroke="#809fbb" d="m1026.34 134.1-1.92 9.37a1.28 1.28 0 0 0 1.1 1.53c2.85.34 12.27 1.5 13.24-2.5q1.39-5.74 2.72-11.51c1.16-5.03 7.61-4.06 11.45-4.18q10.23-.34 18.52-5.92M1077.58 126.77c-5.09 7.12-3.49 18.92 6.94 19.68q9.33.69 16.24-4.88a.76.76 0 0 1 1.24.59v1.97q0 .59.58.68c5.13.78 11.32 1.84 12.58-3.48q2.13-9.01 4.28-18.15M1126.32 126.1l-3.58 17.82a.99.98 6.3 0 0 .95 1.18l10.13.12a1.85 1.85 0 0 0 1.83-1.43l3.48-14.6" vector-effect="non-scaling-stroke"/><path stroke="#babfc3" d="M856.21 220.97q-11.66-6.46-11.67-19.49-.02-22.68.27-33.34.01-.55-.53-.55-.27 0-.5.16" vector-effect="non-scaling-stroke"/><path stroke="#96875a" d="m85.64 117.65-3.28-4.53" vector-effect="non-scaling-stroke"/><path stroke="#7d7f5e" d="M82.36 113.12q-7.27-13.49-21.34-22.15-.54-.32-1.26-.22" vector-effect="non-scaling-stroke"/><path stroke="#1b609b" d="m82.36 113.12 2.32 9.65q.11.45.56.34l1.68-.38" vector-effect="non-scaling-stroke"/><path stroke="#6798bf" d="M240.93 127.73a.52.52 0 0 0 .5.7l14.61-.06a.52.52 0 0 0 .51-.62l-5.27-25.65a.52.52 0 0 0-1-.07l-9.35 25.7" vector-effect="non-scaling-stroke"/><path stroke="#6785a2" d="M901.44 102.19q-2.28 5.98-2.82 11.85a2.02 2.02 0 0 0 1.8 2.2c7 .74 15.97-1.09 16.36-9.68.37-8.09-13.7-8.69-15.34-4.37" vector-effect="non-scaling-stroke"/><path stroke="#809fbb" d="M1048.69 101.94q-2.39 4.72-3.09 11.56c-.47 4.69 7.92 3.19 10.7 2.39q5.72-1.63 7.25-6.76c2.95-9.92-12.55-11.77-14.86-7.19" vector-effect="non-scaling-stroke"/><path stroke="#6785a2" d="M945.99 127.64c-5.23 1.84-6.3 9.52.72 9.89 7.73.41 11.07-3.8 11.27-11.17q.02-.55-.53-.55-6.01-.09-11.46 1.83" vector-effect="non-scaling-stroke"/><path stroke="#809fbb" d="M1089.99 130.22c-6.16 9.11 12.23 10.41 14.37.85q.49-2.19.69-4.5a.5.5 0 0 0-.46-.54c-4.25-.32-12 .34-14.6 4.19" vector-effect="non-scaling-stroke"/><path stroke="#fcd38e" d="M672.48 116.63c-2.27 3.92-3.58 13.03 3.97 11.14" vector-effect="non-scaling-stroke"/><path stroke="#8c9392" d="M676.45 127.77q3.63-3.53 2.91-9.68c-.45-3.86-5.64-4.67-6.88-1.46" vector-effect="non-scaling-stroke"/><path stroke="#886721" d="M676.45 127.77c1.19-3.82 2.82-12.58-3.97-11.14" vector-effect="non-scaling-stroke"/><path stroke="#f58e92" d="M527.96 126.59c-.03 2.83 2.84 2.87 4.59 2.05" vector-effect="non-scaling-stroke"/><path stroke="#a2929f" d="M532.55 128.64q2.73-2.27 2.39-5.04a.73.72-89 0 0-.59-.62q-5.59-1.02-6.39 3.61" vector-effect="non-scaling-stroke"/><path stroke="#982032" d="M532.55 128.64q-.3-1.08-.04-1.33 1.82-1.73-.72-2.41a2.02 2.01-73.5 0 0-2.44 1.33q-.06.17-.1.36-.1.46-.56.42-.41-.03-.73-.42" vector-effect="non-scaling-stroke"/><path stroke="#a2929f" d="m580.99 118 6.56.06a.3.3 0 0 0 .3-.29l.01-.34a3.44 2.82-89.4 0 0-2.79-3.47l-1.52-.02a3.44 2.82-89.4 0 0-2.85 3.41l-.01.34a.3.3 0 0 0 .3.31" vector-effect="non-scaling-stroke"/><path stroke="#fcd38e" d="M636.21 124.94q-.73 1.72-.11 3.12.21.48.73.59 2.17.45 3.74-.14" vector-effect="non-scaling-stroke"/><path stroke="#8c9392" d="M640.57 128.51q2.07-2.09 2.5-4.6.11-.61-.5-.75-4.62-1.05-6.36 1.78" vector-effect="non-scaling-stroke"/><path stroke="#886721" d="m640.57 128.51.3-3.13a.64.64 0 0 0-.68-.7l-3.98.26" vector-effect="non-scaling-stroke"/><path stroke="#ca6166" d="m.69 193.51-.41-.01M13.37 221.19q-.58.14-.27.37" vector-effect="non-scaling-stroke"/></g><path fill="#fff" d="M0 0h1181v49.32l-.51-16.94q-.01-.38-.28-.11-.14.15-.16.3-.21 1.65.06 3.92l-.14 8.86q0 .4-.25.08-.11-.14-.19-.3-.1-.23-.09-.68c.06-2.01-1.55-2.36-3.23-1.98q-6.61 1.5-13.29.69-2.97-.36-5.83-.09c-16.9 1.57-32.97-.18-48.83.31-8.97.28-18.05.63-27.02.23-7.86-.35-13.93-.15-21 .11-10.8.4-21.77-.61-32.68-.51-3.37.03-6.95.12-10.26-.24-6.95-.74-14.29.53-21.36.36-12.18-.29-24.33.19-36.5-.05-7.84-.16-16.15-.56-23.91.66-1.09.17-2.55-.45-3.66-.43-6.69.08-13.45-.21-20.15 1.09-6.06 1.19-10.03-.18-15.24.03-2.45.1-5.12-.64-7.95.28a1.42 1.38-42.5 0 1-.96-.03c-4.26-1.68-6.91 1.07-10.53-.5q-.46-.2-.95-.14c-5.82.75-11.74.18-17.03-.15-4.37-.27-7.88-1.58-12.22.33a.69.67-28.3 0 1-.84-.24q-1.36-2.04-1.56-4.91-1.77-25.18 22.74-26.42c6.11-.31 13.47.14 18.18.14q124.65.01 249.31.01c2.62 0 6.19-.41 9.33-.21q.48.03 1.01-.3.39-.24-.07-.24l-277.67-.09q-7.66.58-12.27 2.89c-14.01 7.02-10.96 23.1-10.9 36.16l-.32 116.54q.14 15.28.24 30.57c.08 10.97 1.85 18.46 12.19 22.65q2.69 1.81 4.79 1.83 88.69.6 301 .06 5.45-.02 10.06-3.84c8.28-5.69 8.87-13.64 8.74-22.92q-.27-18.65.2-37.29V236H0v-61.32l.38 4.78-.1 14.04c-.12 12.8-.34 22.2 12.82 28.06q3.86 1.22 7.9 1.24 135.7.49 295.75.04 10.07-.02 15.73-8.32 2.83-3.61 3.69-8.53c.31-2.62.66-5.34.68-7.99q.37-88.1.08-148.81-.02-2.95-.42-14.17.13-5.53-1.62-9.99c-7.15-14.77-22.14-13.02-35.64-13.02q-135.83-.02-271.67 0C14.6 12.01-.52 16.79.52 32.89q.01.05.05.05h.04q.1-.01.1-.12.1-10.07 7.66-15.71c8.86-6.62 25.88-4.15 37.54-4.14q173.85.17 268.28-.08 14.36-.04 20.42 12.43 1.72 4.57 1.37 9.68-.12 1.24.3 1.23.23 5.06-1.55 8.61a1.23 1.23 0 0 1-.72.62q-4.21 1.32-6.27.83-7.11-1.72-14.34-1.18c-2.49.18-5-.26-7.6-.03-6.44.57-12.59.1-19.8.67-1.49.12-3.91-.4-5.77-.4q-8.94.02-17.89-.2c-2.63-.07-6.48.76-10-.21a1.8 1.77-45.6 0 0-.98.02c-2.91.88-6.26.01-8.27.03q-19.24.19-25.65-.02-34.13-1.11-46.44-.16-8.34.65-13.29.48c-2.56-.08-5.13.49-7.83.24q-4.94-.47-5.8-.46c-35.76.4-72.55.96-107.41.05-2.3-.06-4.8.57-7.45.23-8.85-1.14-17.55-.38-26.29 1.29q-.64.12-.92-.47L.43 42.76q-.08-.18-.14 0-.16.46-.07 1.2L0 55.45V0Zm445.78 12.52c-12.73-.95-23.96 7.67-24.02 20.73-.1 21.27-.79 42.55-.71 63.81q.12 32.61.26 65.22 0 .18.08.28.11.12.26.19l-.05 38.73 1.18 6.59q1.56 6.24 6.38 9.96c3.54 3.25 7.4 4.81 12.52 4.82q131.52.29 263.05.1c10.57-.01 24.89.29 37.12-.3 12.96-2.71 16.88-12.23 16.89-24.4q.04-44.63-.02-89.24l.01-64.26-.11-14.49q-.64-3.9-2.66-7.29c-4.78-8.44-12.96-10.84-22.46-10.86q-141.84-.22-283.69-.07-1.03 0-4.03.48Zm711.446.325a1.84.24 3.9 0 0-1.82-.364 1.84.24 3.9 0 0-1.852.114 1.84.24 3.9 0 0 1.82.364 1.84.24 3.9 0 0 1.852-.114Z"/><path fill="#a8a6a8" d="M334.89 25.03q-.14.15-.28.29-6.06-12.47-20.42-12.43-94.43.25-268.28.08c-11.66-.01-28.68-2.48-37.54 4.14Q.81 22.75.71 32.82q0 .11-.1.12H.57q-.04 0-.05-.05C-.52 16.79 14.6 12.01 27.58 12.01q135.84-.02 271.67 0c13.5 0 28.49-1.75 35.64 13.02ZM755.96 22.97l-.45.03q-5.11-8.54-14.01-9.75c-9.7-1.32-24.46-.26-32.33-.26q-131.56.05-263.2-.04.11-.45-.19-.43 3-.48 4.03-.48 141.85-.15 283.69.07c9.5.02 17.68 2.42 22.46 10.86Z"/><path fill="#cbd7de" d="M867.18 12.85q.09.45.09-.69l277.67.09q.46 0 .07.24-.53.33-1.01.3c-3.14-.2-6.71.21-9.33.21q-124.66 0-249.31-.01c-4.71 0-12.07-.45-18.18-.14Z"/><path fill="#f5e2cd" d="M445.78 12.52q.3-.02.19.43-17.86-.21-22.42 13.97-1.54 4.77-1.46 18.52.21 37.8-.16 75.59c-.02 1.21.71 2.89.84 4.22a.07.07 0 0 0 .14.02q.04-.12.08-.26a.24.23-38.6 0 1 .46.05q.06 1.37 1 2.38.45.47.7-.12l.46-1.06q.27-.64.92-.38c2.2.89 3.99 1.78 6.4 1.98 11.6.97 20.96-.3 31.56-1.31 4.22-.4 11.48-.22 17.27-1.55q.49-.11 1.37.25.37.15.63-.15l1.36-1.59c5.32 51.74 66 75.63 105.2 41.07 39.22 34.56 98.58 10.95 105.11-40.01q.03.55.44 1.06.29.37.75.52 1 .31 1.47 1.12.25.44.62.79 2.31 2.16 5.07 1.15a.71.71 0 0 1 .88.35q.47.94 1.34.4.12-.08.08-.21-.04-.14-.09-.29-.13-.43.32-.43c1.31.02 2.6-.35 3.86-.16 8.01 1.24 16.57 3.03 24.72 2.2q9.49-.97 19.35-1.12a2.47 2.46 84.7 0 1 2.47 2.06q.86 5.22 1.08 11.61 0 .06.05.06.04.01.07.01a.13.12 0 0 0 .13-.12l.16-15.08c.1 24.82.98 50.18-.18 74.95-.45 9.56-6.61 17.01-16.26 18.62-12.35.87-25.09.2-37.51.16q-132.59-.37-265.19-.04-3.3.01-9.9-4.15-4.82-3.72-6.38-9.96l-.84-6.57-.29-38.75q-.15-.07-.26-.19-.08-.1-.08-.28-.14-32.61-.26-65.22c-.08-21.26.61-42.54.71-63.81.06-13.06 11.29-21.68 24.02-20.73Z"/><path fill="#a8a6a8" d="M867.27 12.16q0 1.14-.09.69-24.51 1.24-22.74 26.42l.35 11.71q-.36.23-.69.23c-.06-13.06-3.11-29.14 10.9-36.16q4.61-2.31 12.27-2.89Z"/><ellipse fill="#cbd7de" rx="1.84" ry=".24" transform="rotate(3.9 390.895 16973.9)"/><path fill="#fdf9f4" d="M755.51 23q2.01 3.41 2.57 7.26l.12 14.49.07 50.99-.07 32.75-.16 15.08a.13.12 0 0 1-.13.12q-.03 0-.07-.01-.05 0-.05-.06-.22-6.39-1.08-11.61a2.47 2.46 84.7 0 0-2.47-2.06q-9.86.15-19.35 1.12c-8.15.83-16.71-.96-24.72-2.2-1.26-.19-2.55.18-3.86.16q-.45 0-.32.43.05.15.09.29.04.13-.08.21-.87.54-1.34-.4a.71.71 0 0 0-.88-.35q-2.76 1.01-5.07-1.15-.37-.35-.62-.79-.47-.81-1.47-1.12-.46-.15-.75-.52-.41-.51-.44-1.06c4.77-52.1-49.3-86.76-94.64-61.28q-3.66 2.06-10.77 7.52c-26.11-23.14-65.85-21.04-89.11 4.98q-17.52 19.58-15.79 47.72l-1.36 1.59q-.26.3-.63.15-.88-.36-1.37-.25c-5.79 1.33-13.05 1.15-17.27 1.55-10.6 1.01-19.96 2.28-31.56 1.31-2.41-.2-4.2-1.09-6.4-1.98q-.65-.26-.92.38l-.46 1.06q-.25.59-.7.12-.94-1.01-1-2.38a.24.23-38.6 0 0-.46-.05q-.04.14-.08.26a.07.07 0 0 1-.14-.02c-.13-1.33-.86-3.01-.84-4.22q.37-37.79.16-75.59-.08-13.75 1.46-18.52 4.56-14.18 22.42-13.97 131.64.09 263.2.04c7.87 0 22.63-1.06 32.33.26q8.9 1.21 14.01 9.75Z"/><path fill="#eb1c24" d="m755.51 23 .45-.03q2.02 3.39 2.66 7.29h-.54q-.56-3.85-2.57-7.26ZM334.89 25.03q1.75 4.46 1.62 9.99l-.53-.02q.35-5.11-1.37-9.68.14-.14.28-.29Z"/><path fill="#a8a6a8" d="M758.08 30.26h.54l.11 14.49h-.53l-.12-14.49ZM1181 49.32v109.49q-.47 18.64-.2 37.29c.13 9.28-.46 17.23-8.74 22.92q8.08-6.63 8.14-17.78.19-33.25-.23-66.48l.14-98.27q-.27-2.27-.06-3.92.02-.15.16-.3.27-.27.28.11l.51 16.94ZM335.98 35l.53.02q.4 11.22.42 14.17.29 60.71-.08 148.81c-.02 2.65-.37 5.37-.68 7.99l-.04-115.75.15-54.01q-.42.01-.3-1.23Z"/><path fill="#edf1f4" d="m336.28 36.23-.15 54.01q-.49.49-.44 1.46.02.38-.26.11l-.2-.21q-.31-.3-.74-.24c-2.9.45-5.22.77-8.29.27-7.87-1.28-17.07-.08-22.81-.12-4.96-.03-9.76-.58-14.74-.31-3.92.21-7.48-.69-11.55-.13-2.22.3-4.2-.14-6.44.08q-1.14.12-1.57.98-.21.42-.68.48-.41.04-.87-.12l-2.4-11.52a1.18 1.16 84.5 0 0-1.13-.94q-7.49-.11-15.48.04c-7.43.14-8.83 5.31-11.79 12.4q-10.14 24.27-19.99 48.1-2.02-.32-2.72-.97a.63.63 0 0 0-.5-.17l-3.6.38c4.65-12.68-.28-20.94-10.68-27.22-4.01-2.42-11.46-5.27-13.94-8.64-3.48-4.74 2.13-8.87 6.63-9.32q10.07-1.01 19.4 3.35a.36.36 0 0 0 .5-.26q1.25-6.67 2.07-13.49.36-2.95-1.79-3.35-1.12-.2-1.21-.23c-17.76-5-42.86-1.27-46.97 20.37l-11.53-.04 3.2-20.25q.08-.5-.42-.51l-18.35-.3a.61.6-85.1 0 0-.61.52l-5.09 32.63q-.97-.38-1.6-1.02-.26-.28-.58-.07-1.04.66-1.63-.22a1.37 1.31-1.3 0 0-.47-.43q-3.7-1.94-7.84-2.15-.55-.02-.88.42l-.32.44q-.29.4-.75.22l-.94-.35 11.86-29.17a.54.54 0 0 0-.5-.74h-18.95a.96.95 10 0 0-.9.62L89 130.39q-.35.94-.55-.04l-1.53-7.62q-1.48-3.18-1.28-5.08-2.7-15.09-5.73-29.58c-1.13-5.43-3.69-7.37-9.3-7.94-10.12-1.03-20.87-.02-30.97-.14a.75.75 0 0 0-.57 1.24q.27.31 1.04.54c4.14 1.24 17.34 5.66 19.65 8.98l4.83 18.49-.62 1.49q-.12.27-.31.05-.79-.89-1.99-.42c-4.73 1.84-9.79 2.74-14.34 3.22-3.35.36-6.6-.91-9.64-.27-5.26 1.1-8.31 1.94-13.28-.31-6.52-2.95-14.88-2.49-21.73-1.05q-.26.06-.4-.17l-.21-.36q-.4-.67-.32.1.02.27 0 .49a.12.12 0 0 1-.24-.02c.05-2.18-.54-4.43-.53-6.41Q1.16 75.29.73 45q0-.45-.51-1.04-.09-.74.07-1.2.06-.18.14 0l1.58 3.41q.28.59.92.47c8.74-1.67 17.44-2.43 26.29-1.29 2.65.34 5.15-.29 7.45-.23 34.86.91 71.65.35 107.41-.05q.86-.01 5.8.46c2.7.25 5.27-.32 7.83-.24q4.95.17 13.29-.48 12.31-.95 46.44.16 6.41.21 25.65.02c2.01-.02 5.36.85 8.27-.03a1.8 1.77-45.6 0 1 .98-.02c3.52.97 7.37.14 10 .21q8.95.22 17.89.2c1.86 0 4.28.52 5.77.4 7.21-.57 13.36-.1 19.8-.67 2.6-.23 5.11.21 7.6.03q7.23-.54 14.34 1.18 2.06.49 6.27-.83a1.23 1.23 0 0 0 .72-.62q1.78-3.55 1.55-8.61ZM1180.11 36.49l-.14 98.27c-3.96-.28-7.39 1.47-11 .91q-10.62-1.64-21.28-2.99-.53-.07-1.01.17l-2.86 1.38q-.58.28-1.02-.18l-3.53-3.67q-.48-.5.2-.36.29.07.57.16.21.08.21-.15v-.34q-.01-.38-.39-.43l-.73-.07q3.87-17.21 7.59-34.45.37-1.72.26-3.7-.03-.54-.56-.62c-5.07-.8-11.82-2.27-13.31 4.5q-3.33 15.23-6.79 31.18-1.65-1.8-2.93-2.23-.81-.27-1.18-.33-.76-.14-1.2.64-.24.43-.58.07l-.99-1.07c1.94-8.27 4.47-17.4-6.5-19.85q-11.17-2.5-22.34-.03c-5.57 1.22-7.19 4.25-6.43 10.09q.06.48.53.36c4.64-1.19 21.39-5.98 22.86 1.9a2.02 2.01 83.7 0 1-1.9 2.38c-9.48.37-21.31 1.66-28.08 8.74l.3-2.2q.08-.55-.38-.87l-2.56-1.76q-.34-.23-.74-.15-1.02.19-1.21-.73-.13-.67-.53-.12l-.61.85a.24.24 0 0 1-.4-.26q.34-.58 0-.64c11.99-9.87 11-28.66-7.28-30.54q-13.02-1.33-26.14-.18a1.07 1.02 13.5 0 0-.76.44q-1.42 2.03-1.78 3.64-4.47 19.9-9.15 39.85-1.54-.39-2.89-.81-.8-.25-1.27-.14-.88.21-1 1.11-.06.46-.52.47-3.48.09-6.96-.02c-1.03-.03-1.54-.52-1.78-1.45q-.15-.59-.55-.14-1.02 1.17-2.22.04l16.82-28.6q.74-1.25-.71-1.42c-4.59-.53-12.92-1.8-15.72 3.16q-6.04 10.75-12.63 21.63a.58.58 0 0 1-1.07-.2q-1.5-8.82-3.05-17.89c-1.53-8.96-4.73-6.75-12.09-6.85q-3.03-.04-2.51 2.95l6.62 37.67q-1.86-1.3-3.45-.15-.48.34-1 .06l-5.5-2.97a.61.59-34.5 0 0-.41-.07q-1.57.27-2.89-.49a.59.59 0 0 0-.74.13q-1.03 1.22-2.4.02 2.53-10.88 4.85-21.94c1.6-7.6.64-13.2-7.29-14.95q-10.84-2.39-21.66-.18c-6.61 1.35-7.3 3.58-7.46 10a.75.75 0 0 0 .98.73q6.83-2.29 13.65-2.46c3.77-.09 11.03.94 8.43 6.19q-.2.41-.65.43c-7.9.4-19.54 1.32-25.93 6.13-5.45 4.11-7.84 12.65-3.26 18.66q-.12.29-1.01-.01-.65-.21-.43-.87.21-.62-.88-.34-.51.13-.51.22 0 .16-.01.31a.38.38 0 0 1-.5.35c-4.98-1.73-9.55-.85-14.34-1.35q-6.11-.64-12.27.06a2.05 2.03 52.2 0 1-.99-.13q-2.23-.92-4.16.28-.5.31-.96-.05-.89-.69-1.84-.54l2.63-11.01a3.52 3.51-82.3 0 1 3.54-2.7c13.67.48 31.53-3.29 33.74-19.61 1.12-8.21-3.47-15.43-11.87-16.88q-12.2-2.11-29.76-.42a.98.97 9.1 0 0-.78.56q-.75 1.65-1.4 4.39-5.75 24.56-11.23 49.2-.74.75-2.01.61-.47-.05-.91.13-.97.39-1.89.31c-2.94-.25-5.35.29-8.28-.1q-2.38-.32-4.76.07c-2.12.35-3.97-.21-6.15.22a1.88 1.83-37.6 0 1-1.11-.13q-2.17-1-4.21.19a.7.69 65.9 0 1-1.01-.39c-.58-1.78-1.61-3.58-1.62-5.48q-.22-43.19-.01-86.39.01-1.24-.3-2.27l-.35-11.71q.2 2.87 1.56 4.91a.69.67-28.3 0 0 .84.24c4.34-1.91 7.85-.6 12.22-.33 5.29.33 11.21.9 17.03.15q.49-.06.95.14c3.62 1.57 6.27-1.18 10.53.5a1.42 1.38-42.5 0 0 .96.03c2.83-.92 5.5-.18 7.95-.28 5.21-.21 9.18 1.16 15.24-.03 6.7-1.3 13.46-1.01 20.15-1.09 1.11-.02 2.57.6 3.66.43 7.76-1.22 16.07-.82 23.91-.66 12.17.24 24.32-.24 36.5.05 7.07.17 14.41-1.1 21.36-.36 3.31.36 6.89.27 10.26.24 10.91-.1 21.88.91 32.68.51 7.07-.26 13.14-.46 21-.11 8.97.4 18.05.05 27.02-.23 15.86-.49 31.93 1.26 48.83-.31q2.86-.27 5.83.09 6.68.81 13.29-.69c1.68-.38 3.29-.03 3.23 1.98q-.01.45.09.68.08.16.19.3.25.32.25-.08l.14-8.86Z"/><path fill="#cbd7de" d="M.22 43.96q.51.59.51 1.04.43 30.29.25 60.58c-.01 1.98.58 4.23.53 6.41a.12.12 0 0 0 .24.02q.02-.22 0-.49-.08-.77.32-.1l.21.36q.14.23.4.17c6.85-1.44 15.21-1.9 21.73 1.05 4.97 2.25 8.02 1.41 13.28.31 3.04-.64 6.29.63 9.64.27 4.55-.48 9.61-1.38 14.34-3.22q1.2-.47 1.99.42.19.22.31-.05l.62-1.49 12.16 45.92a.8.78 82.3 0 0 .76.59h19.47q.49 0 .67-.45l18.48-45.39.94.35q.46.18.75-.22l.32-.44q.33-.44.88-.42 4.14.21 7.84 2.15a1.37 1.31-1.3 0 1 .47.43q.59.88 1.63.22.32-.21.58.07.63.64 1.6 1.02l-6.6 42.38q-.09.55.46.55h18q.52 0 .6-.51l8.81-54.51 11.53.04c-.87 15.52 12.11 20.33 23.19 26.86 5.86 3.45 4.96 9.29-.82 11.84-7.9 3.49-19.71.26-27-3.48a.6.6 0 0 0-.86.43q-1.3 7.13-2.4 14.3-.3 2.01 1.61 2.6c16.99 5.23 43.81 5.9 52.27-13.76l3.6-.38a.63.63 0 0 1 .5.17q.7.65 2.72.97l-6.14 14.86q-.23.57.38.57h19.24a.8.78 9.2 0 0 .75-.53l3.52-10.12a1.24 1.24 0 0 1 1.19-.84l23.74.32a.67.67 0 0 1 .65.55l2.05 10.11q.1.51.63.51h16.48a.94.94 0 0 0 .92-1.12l-12.62-62.39q.46.16.87.12.47-.06.68-.48.43-.86 1.57-.98c2.24-.22 4.22.22 6.44-.08 4.07-.56 7.63.34 11.55.13 4.98-.27 9.78.28 14.74.31 5.74.04 14.94-1.16 22.81.12 3.07.5 5.39.18 8.29-.27q.43-.06.74.24l.2.21q.28.27.26-.11-.05-.97.44-1.46l.04 115.75q-.86 4.92-3.69 8.53-7.01 8.38-18.46 7.81c-14.97-.74-34.87-.33-49.53-.34-81.09-.02-162.14.06-243.24.28q-3.88.01-7.88-1.08C.07 215.53.95 206.15.69 193.51l-.31-14.05-.38-4.78V55.45l.22-11.49Z"/><path fill="#44243f" d="M758.2 44.75h.53l-.01 64.26-.45-13.27-.07-50.99Z"/><path fill="#cbd7de" d="M844.79 50.98q.31 1.03.3 2.27-.21 43.2.01 86.39c.01 1.9 1.04 3.7 1.62 5.48a.7.69 65.9 0 0 1.01.39q2.04-1.19 4.21-.19a1.88 1.83-37.6 0 0 1.11.13c2.18-.43 4.03.13 6.15-.22q2.38-.39 4.76-.07c2.93.39 5.34-.15 8.28.1q.92.08 1.89-.31.44-.18.91-.13 1.27.14 2.01-.61 5.17 1.16 10.45.89c2.97-.15 4.24-1.65 4.68-4.42q.95-.15 1.84.54.46.36.96.05 1.93-1.2 4.16-.28a2.05 2.03 52.2 0 0 .99.13q6.16-.7 12.27-.06c4.79.5 9.36-.38 14.34 1.35a.38.38 0 0 0 .5-.35q.01-.15.01-.31 0-.09.51-.22 1.09-.28.88.34-.22.66.43.87.89.3 1.01.01c6.33 6.65 17.62 3.61 23.77-1.33a.71.71 0 0 1 1.15.56v2.04a.89.88 5.1 0 0 .73.87q5.03.86 10.06-.08.47-.09.78-.46 1.43-1.76 1.85-4.21 1.37 1.2 2.4-.02a.59.59 0 0 1 .74-.13q1.32.76 2.89.49a.61.59-34.5 0 1 .41.07l5.5 2.97q.52.28 1-.06 1.59-1.15 3.45.15.18 8.14-6.88 17.58-.74.99-.91 2.85-.04.48.44.56c4.74.73 12.13 1.45 14.5-2.4q4.61-7.47 17.19-29.04 1.2 1.13 2.22-.04.4-.45.55.14c.24.93.75 1.42 1.78 1.45q3.48.11 6.96.02.46-.01.52-.47.12-.9 1-1.11.47-.11 1.27.14 1.35.42 2.89.81l-1.92 9.37a1.28 1.28 0 0 0 1.1 1.53c2.85.34 12.27 1.5 13.24-2.5q1.39-5.74 2.72-11.51c1.16-5.03 7.61-4.06 11.45-4.18q10.23-.34 18.52-5.92.34.06 0 .64a.24.24 0 0 0 .4.26l.61-.85q.4-.55.53.12.19.92 1.21.73.4-.08.74.15l2.56 1.76q.46.32.38.87l-.3 2.2c-5.09 7.12-3.49 18.92 6.94 19.68q9.33.69 16.24-4.88a.76.76 0 0 1 1.24.59v1.97q0 .59.58.68c5.13.78 11.32 1.84 12.58-3.48q2.13-9.01 4.28-18.15l.99 1.07q.34.36.58-.07.44-.78 1.2-.64.37.06 1.18.33 1.28.43 2.93 2.23l-3.58 17.82a.99.98 6.3 0 0 .95 1.18l10.13.12a1.85 1.85 0 0 0 1.83-1.43l3.48-14.6.73.07q.38.05.39.43v.34q0 .23-.21.15-.28-.09-.57-.16-.68-.14-.2.36l3.53 3.67q.44.46 1.02.18l2.86-1.38q.48-.24 1.01-.17 10.66 1.35 21.28 2.99c3.61.56 7.04-1.19 11-.91q.42 33.23.23 66.48-.06 11.15-8.14 17.78-4.61 3.82-10.06 3.84-212.31.54-301-.06-2.1-.02-4.79-1.83-11.66-6.46-11.67-19.49-.02-22.68.27-33.34.01-.55-.53-.55-.27 0-.5.16l.32-116.54q.33 0 .69-.23Z"/><path fill="#eb1c24" d="m590.02 70.81-5.43 6.14a.64.64 0 0 0 .53 1.07c6.59-.52 12.56-2.03 15.68 5.62q.21.5-.34.51-9.27.22-18.53.09c-3.62-.05-4.49 3.32-5.79 5.89a.58.58 0 0 0 .51.84c9.28.13 18.89-.69 28.04.14a.95.95 0 0 1 .8.63l1.88 5.54a.52.52 0 0 1-.49.69l-32.91.09q-1.24 0-1.6 1.19l-1.58 5.24-6.51-.41-3.39 4.19c-5.76-.77-13.79-1.25-15.92 4.96l-2.21.31c-2.79-7.24-10.65-6.33-16.76-4.19q-.48.17-.53.68l-.45 4.71q-.51.54-.5 1.14.01.58.57.46 3.54-.71 7.13-.61 1.02.02 1.33.6.34.63.22 1.71-8.22-.72-11.45 5.13-.5.86-2.11-.01l3.31-20.16a.56.55-86.6 0 0-.57-.65l-10.24.38c-4.17 4.18-3.68 8.41-6.51 12.96l-.18-12.91a.54.54 0 0 0-.54-.53h-8.46q-.45 0-.76.33-.4.42-.22.93l-1.16.56a1.27 1.25 82.3 0 0-.7.93l-4.91 29.66q-.23 1.4 1.17 1.56 2.61.31 4.95-.52.51-.18.73-.68.15-.36.13-.75.82.09.94-.53.63-3.33 1.67-7.79 1.95 4.45.82 9.11-.13.53.39.68 3.81 1.14 6.32-1.06l3.6-9.37q1.09 4.91-.39 9.82-.15.5.35.63 4.83 1.2 6.85-1.35 1.91-.52 2.21-2.43 3.04 4.96 6.74 4.95 3.29-.01 11.77-1.03 2.14-.26 4.76.32 3.66.8 7.43.67c3.12-.11 5.36-1.62 8.26-2.78q.48-.19.86.15 6.55 5.68 12.18-.64-.41-2.69.41-5.14.25-.74-.48-.45-1.9.78-3.36-.53-.39-.34-.31-.86l1.78-11.26q.11-.72.83-.67l2.46.17a.51.51 0 0 0 .54-.46l.58-5.67a.46.45 2.8 0 0-.46-.5h-2.44q-.59 0-.44-.57l.94-3.41 37.19.03q1.99 0 1.73 1.98-.12.82.52 2.01-3.67-.49-5.86 2.84-.15.23-.35.03l-.25-.24q-.32-.33-.13-.75.72-1.61-.9-1.91-3.41-.64-5.26.66l-3.57 6.24c-3.26-9.37-13.62-9.23-18.55-1.76-3.46 5.25-4.39 15.21 1.62 19.29q5.57 3.79 14.35 1-.12 3.65 6.51 2.37.36-.07.37-.44.02-.59.63-1.42 1.75.45 1.89-.7 1.05-8.75 3.2-15.77l2.27.19q.61.05.56.66-.58 7.46 2.39 13.5l-1.36 4.95a1.36 1.35-82 0 1-1.3.99l-32.69-.06q-1.15-.01-.72 1.06l1.97 4.94q.22.54.8.54h27.79q.86 0 .5.79l-2.47 5.39a1.08 1.07-77.4 0 1-.97.62l-21.24-.18a.34.34 0 0 0-.29.52c1.22 1.88 3.62 6.28 6.13 6.31q5.05.08 9.9.04a.51.51 0 0 1 .37.87l-5.52 5.72c-39.2 34.56-99.88 10.67-105.2-41.07q-1.73-28.14 15.79-47.72c23.26-26.02 63-28.12 89.11-4.98Z"/><path fill="#f8a61c" d="M695.43 124.57c-6.53 50.96-65.89 74.57-105.11 40.01l5.52-5.72a.51.51 0 0 0-.37-.87q-4.85.04-9.9-.04c-2.51-.03-4.91-4.43-6.13-6.31a.34.34 0 0 1 .29-.52l21.24.18a1.08 1.07-77.4 0 0 .97-.62l2.47-5.39q.36-.79-.5-.79h-27.79q-.58 0-.8-.54l-1.97-4.94q-.43-1.07.72-1.06l32.69.06a1.36 1.35-82 0 0 1.3-.99l1.36-4.95q5.57 6.22 13.39 4.29c1.87-.47 3.09-1.99 5.53-1.9a1.26 1.22 68.9 0 1 .85.39c2.87 3.13 6.56 1.88 9.89.41q.43-.19.85.03 2.67 1.4 5.66.53.48-.14.61-.48.12-.35.05-.86 1.61-.45 2.18.99 4.69 1.73 7.48-.87 1.49-.9 1.59-2.11.55-6.61 2.48-12.72.6-.1 1.2-1.35.42-.86 1.55-.62a.44.44 0 0 1 .32.59q-1.99 5.47-.93 10.84c1.25 6.32 6.59 9.46 12.5 6.06q.4-.23.82-.03 4.26 2.04 7.93-.61.95-.59 1.05-1.23 2.54-15.04 4.87-30.32a.63.63 0 0 0-.51-.72q-4.13-.75-6.55.83-2.02 2.46-2.43 6.29-6.71-3.71-11.59 1.8-1.21-.12-2.87 1.6l.6-2.71a1.41 1.4 80.7 0 0-2.09-1.51q-1.8 1.08-3.18 2.84a.38.38 0 0 1-.66-.32l.44-1.99q.12-.52-.41-.62-2.18-.38-4.28-.41-1.95-.02-1.89 1.52-1.83-.53-2.36 4.89c-3.69-7.94-10.47-7.9-17.75-5.34q-1.17.42-1.15 1.43-.6-.01-.95.12-.34.13-.39.71-.23 2.32-.4 4.73-.04.5.45.37c2.06-.57 9.45-1.98 10.44.79-4.42 1.48-8.04.13-11.19 5.08q-2.73 1.27-2.83 4.39c-13.21 5.21-14.08-9.27-8.37-15.71q4.84-1.61 9.07.93.39.24 1.35-1.96 1.56-.05 2.24-5.21.22-1.62-1.71-2.19-8.49-2.47-14.85 2.02c-1.72.16-3.22 2.7-4.97 3.53q-.64-1.19-.52-2.01.26-1.98-1.73-1.98l-37.19-.03q-.14.11-.27.22l1.58-5.24q.36-1.19 1.6-1.19l32.91-.09a.52.52 0 0 0 .49-.69l-1.88-5.54a.95.95 0 0 0-.8-.63c-9.15-.83-18.76-.01-28.04-.14a.58.58 0 0 1-.51-.84c1.3-2.57 2.17-5.94 5.79-5.89q9.26.13 18.53-.09.55-.01.34-.51c-3.12-7.65-9.09-6.14-15.68-5.62a.64.64 0 0 1-.53-1.07l5.43-6.14q7.11-5.46 10.77-7.52c45.34-25.48 99.41 9.18 94.64 61.28Z"/><path fill="#02589f" d="M209.93 139.81c-8.46 19.66-35.28 18.99-52.27 13.76q-1.91-.59-1.61-2.6 1.1-7.17 2.4-14.3a.6.6 0 0 1 .86-.43c7.29 3.74 19.1 6.97 27 3.48 5.78-2.55 6.68-8.39.82-11.84-11.08-6.53-24.06-11.34-23.19-26.86 4.11-21.64 29.21-25.37 46.97-20.37q.09.03 1.21.23 2.15.4 1.79 3.35-.82 6.82-2.07 13.49a.36.36 0 0 1-.5.26q-9.33-4.36-19.4-3.35c-4.5.45-10.11 4.58-6.63 9.32 2.48 3.37 9.93 6.22 13.94 8.64 10.4 6.28 15.33 14.54 10.68 27.22Z"/><path fill="#f8a61c" d="m85.64 117.65-3.28-4.53q-7.27-13.49-21.34-22.15-.54-.32-1.26-.22c-2.31-3.32-15.51-7.74-19.65-8.98q-.77-.23-1.04-.54a.75.75 0 0 1 .57-1.24c10.1.12 20.85-.89 30.97.14 5.61.57 8.17 2.51 9.3 7.94q3.03 14.49 5.73 29.58Z"/><path fill="#02589f" d="M116.13 109.91 97.65 155.3q-.18.45-.67.45H77.51a.8.78 82.3 0 1-.76-.59l-12.16-45.92-4.83-18.49q.72-.1 1.26.22 14.07 8.66 21.34 22.15l2.32 9.65q.11.45.56.34l1.68-.38 1.53 7.62q.2.98.55.04l18.64-49.77a.96.95 10 0 1 .9-.62h18.95a.54.54 0 0 1 .5.74l-11.86 29.17ZM152.41 100.98l-8.81 54.51q-.08.51-.6.51h-18q-.55 0-.46-.55l6.6-42.38 5.09-32.63a.61.6-85.1 0 1 .61-.52l18.35.3q.5.01.42.51l-3.2 20.25ZM267.54 92.49l12.62 62.39a.94.94 0 0 1-.92 1.12h-16.48q-.53 0-.63-.51l-2.05-10.11a.67.67 0 0 0-.65-.55l-23.74-.32a1.24 1.24 0 0 0-1.19.84l-3.52 10.12a.8.78 9.2 0 1-.75.53h-19.24q-.61 0-.38-.57l6.14-14.86q9.85-23.83 19.99-48.1c2.96-7.09 4.36-12.26 11.79-12.4q7.99-.15 15.48-.04a1.18 1.16 84.5 0 1 1.13.94l2.4 11.52Zm-26.61 35.24a.52.52 0 0 0 .5.7l14.61-.06a.52.52 0 0 0 .51-.62l-5.27-25.65a.52.52 0 0 0-1-.07l-9.35 25.7Z"/><path fill="#033365" d="M892.18 140.68c-.44 2.77-1.71 4.27-4.68 4.42q-5.28.27-10.45-.89 5.48-24.64 11.23-49.2.65-2.74 1.4-4.39a.98.97 9.1 0 1 .78-.56q17.56-1.69 29.76.42c8.4 1.45 12.99 8.67 11.87 16.88-2.21 16.32-20.07 20.09-33.74 19.61a3.52 3.51-82.3 0 0-3.54 2.7l-2.63 11.01Zm9.26-38.49q-2.28 5.98-2.82 11.85a2.02 2.02 0 0 0 1.8 2.2c7 .74 15.97-1.09 16.36-9.68.37-8.09-13.7-8.69-15.34-4.37Z"/><path fill="#346797" d="M1071.45 120.89q-8.29 5.58-18.52 5.92c-3.84.12-10.29-.85-11.45 4.18q-1.33 5.77-2.72 11.51c-.97 4-10.39 2.84-13.24 2.5a1.28 1.28 0 0 1-1.1-1.53l1.92-9.37q4.68-19.95 9.15-39.85.36-1.61 1.78-3.64a1.07 1.02 13.5 0 1 .76-.44q13.12-1.15 26.14.18c18.28 1.88 19.27 20.67 7.28 30.54Zm-22.76-18.95q-2.39 4.72-3.09 11.56c-.47 4.69 7.92 3.19 10.7 2.39q5.72-1.63 7.25-6.76c2.95-9.92-12.55-11.77-14.86-7.19ZM1139.13 129.19l-3.48 14.6a1.85 1.85 0 0 1-1.83 1.43l-10.13-.12a.99.98 6.3 0 1-.95-1.18l3.58-17.82q3.46-15.95 6.79-31.18c1.49-6.77 8.24-5.3 13.31-4.5q.53.08.56.62.11 1.98-.26 3.7-3.72 17.24-7.59 34.45Z"/><path fill="#eb1c24" d="m758.27 95.74.45 13.27q.06 44.61.02 89.24c-.01 12.17-3.93 21.69-16.89 24.4q-.19-.44-.09-.59c9.65-1.61 15.81-9.06 16.26-18.62 1.16-24.77.28-50.13.18-74.95l.07-32.75Z"/><path fill="#cbd7de" d="M901.44 102.19c1.64-4.32 15.71-3.72 15.34 4.37-.39 8.59-9.36 10.42-16.36 9.68a2.02 2.02 0 0 1-1.8-2.2q.54-5.87 2.82-11.85ZM1048.69 101.94c2.31-4.58 17.81-2.73 14.86 7.19q-1.53 5.13-7.25 6.76c-2.78.8-11.17 2.3-10.7-2.39q.7-6.84 3.09-11.56ZM240.93 127.73l9.35-25.7a.52.52 0 0 1 1 .07l5.27 25.65a.52.52 0 0 1-.51.62l-14.61.06a.52.52 0 0 1-.5-.7Z"/><path fill="#fff" d="M629.79 110.14q-5.98-3.6-10.42 1.03c-5.71 6.44-4.84 20.92 8.37 15.71l-.3 6.06q-.03.52-.51.74c-7.85 3.65-16.16-.71-17.48-9.35q-1.74-11.48 6.02-19.57 6.36-4.49 14.85-2.02 1.93.57 1.71 2.19-.68 5.16-2.24 5.21Z"/><path fill="#033365" d="M968.42 140.14q-.42 2.45-1.85 4.21-.31.37-.78.46-5.03.94-10.06.08a.89.88 5.1 0 1-.73-.87v-2.04a.71.71 0 0 0-1.15-.56c-6.15 4.94-17.44 7.98-23.77 1.33-4.58-6.01-2.19-14.55 3.26-18.66 6.39-4.81 18.03-5.73 25.93-6.13q.45-.02.65-.43c2.6-5.25-4.66-6.28-8.43-6.19q-6.82.17-13.65 2.46a.75.75 0 0 1-.98-.73c.16-6.42.85-8.65 7.46-10q10.82-2.21 21.66.18c7.93 1.75 8.89 7.35 7.29 14.95q-2.32 11.06-4.85 21.94Zm-22.43-12.5c-5.23 1.84-6.3 9.52.72 9.89 7.73.41 11.07-3.8 11.27-11.17q.02-.55-.53-.55-6.01-.09-11.46 1.83Z"/><path fill="#346797" d="M1119.44 123.18q-2.15 9.14-4.28 18.15c-1.26 5.32-7.45 4.26-12.58 3.48q-.58-.09-.58-.68v-1.97a.76.76 0 0 0-1.24-.59q-6.91 5.57-16.24 4.88c-10.43-.76-12.03-12.56-6.94-19.68 6.77-7.08 18.6-8.37 28.08-8.74a2.02 2.01 83.7 0 0 1.9-2.38c-1.47-7.88-18.22-3.09-22.86-1.9q-.47.12-.53-.36c-.76-5.84.86-8.87 6.43-10.09q11.17-2.47 22.34.03c10.97 2.45 8.44 11.58 6.5 19.85Zm-29.45 7.04c-6.16 9.11 12.23 10.41 14.37.85q.49-2.19.69-4.5a.5.5 0 0 0-.46-.54c-4.25-.32-12 .34-14.6 4.19Z"/><path fill="#fff" d="M506.2 115.69q-.59 2.69.01 5.53.17.81.42.03l6.08-18.52 10.24-.38a.56.55-86.6 0 1 .57.65l-3.31 20.16-1.2 8.82q-.3 1.91-2.21 2.43l-4.53-.21q-.67-.03-.57-.69l3.19-20.66a.34.34 0 0 0-.66-.16l-4.24 12.62-3.6 9.37-3.65-.44q-.57-.07-.58-.64l-.67-22.88a.1.1 0 0 0-.19-.01l-2.44 15.24q-1.04 4.46-1.67 7.79-.12.62-.94.53l-4.62-.01a.62.62 0 0 1-.61-.73l5.02-30.02q-.18-.51.22-.93.31-.33.76-.33h8.46a.54.54 0 0 1 .54.53l.18 12.91ZM683.37 134.66l-4.64-.4q-.51-.04-.69-.52l-.26-.72q-.24-.64-.73-.17c-4.84 4.58-11.45 1.22-12.76-4.85q-2.08-9.66 3.92-16.69 4.88-5.51 11.59-1.8.13 1.23.97 1.27a.6.59-84.8 0 0 .62-.52l.84-7.04q2.42-1.58 6.55-.83a.63.63 0 0 1 .51.72q-2.33 15.28-4.87 30.32-.1.64-1.05 1.23Zm-10.89-18.03c-2.27 3.92-3.58 13.03 3.97 11.14q3.63-3.53 2.91-9.68c-.45-3.86-5.64-4.67-6.88-1.46Z"/><path fill="#033365" d="M1009.15 133.16q-12.58 21.57-17.19 29.04c-2.37 3.85-9.76 3.13-14.5 2.4q-.48-.08-.44-.56.17-1.86.91-2.85 7.06-9.44 6.88-17.58l-6.62-37.67q-.52-2.99 2.51-2.95c7.36.1 10.56-2.11 12.09 6.85q1.55 9.07 3.05 17.89a.58.58 0 0 0 1.07.2q6.59-10.88 12.63-21.63c2.8-4.96 11.13-3.69 15.72-3.16q1.45.17.71 1.42l-16.82 28.6Z"/><path fill="#44243f" d="m512.71 102.73-6.08 18.52q-.25.78-.42-.03-.6-2.84-.01-5.53c2.83-4.55 2.34-8.78 6.51-12.96ZM496.04 103.51l-5.02 30.02a.62.62 0 0 0 .61.73l4.62.01q.02.39-.13.75-.22.5-.73.68-2.34.83-4.95.52-1.4-.16-1.17-1.56l4.91-29.66a1.27 1.25 82.3 0 1 .7-.93l1.16-.56Z"/><path fill="#182725" d="m682.23 103.22-.84 7.04a.6.59-84.8 0 1-.62.52q-.84-.04-.97-1.27.41-3.83 2.43-6.29Z"/><path fill="#44243f" d="M564.28 104.08q-2.13 12.07-3.81 23.66c-1.11 7.71 5.23 8 10.54 5.88q-5.63 6.32-12.18.64-.38-.34-.86-.15c-2.9 1.16-5.14 2.67-8.26 2.78q-3.77.13-7.43-.67-2.62-.58-4.76-.32-8.48 1.02-11.77 1.03-3.7.01-6.74-4.95l1.2-8.82q1.61.87 2.11.01c-3.89 8.83 4.38 16 11.83 9.06q.64-.59.61.28l-.04 1.31q-.02.43.41.43h4.38a.65.65 0 0 0 .64-.54l1.99-13.01q2.83 4.02 7.29 6.35.64.34.74.77.12.55-.23 1.21l-6.86-.83a.61.6 12.1 0 0-.65.42c-.62 1.97-1.28 5.04 1.22 5.69q8.16 2.12 14.27-2.63a1.12 1.1-17.4 0 0 .43-.81l.57-8.25q1.76-3.95 1.39-8.63-.47-3.01.58-5.72l3.39-4.19Z"/><path fill="#fff" d="m564.28 104.08 6.51.41q.13-.11.27-.22l-.94 3.41q-.15.57.44.57H573a.46.45 2.8 0 1 .46.5l-.58 5.67a.51.51 0 0 1-.54.46l-2.46-.17q-.72-.05-.83.67l-1.78 11.26q-.08.52.31.86 1.46 1.31 3.36.53.73-.29.48.45-.82 2.45-.41 5.14c-5.31 2.12-11.65 1.83-10.54-5.88q1.68-11.59 3.81-23.66Z"/><path fill="#033365" d="M615.47 104.76q-7.76 8.09-6.02 19.57c1.32 8.64 9.63 13 17.48 9.35q.48-.22.51-.74l.3-6.06q.1-3.12 2.83-4.39c-3.38 5.02-1.08 12.86 5.92 12.48q1.98-.11 5.48-2.5.53-.35.53.28v.93q0 .57.57.6l3.18.21q.07.51-.05.86-.13.34-.61.48-2.99.87-5.66-.53-.42-.22-.85-.03c-3.33 1.47-7.02 2.72-9.89-.41a1.26 1.22 68.9 0 0-.85-.39c-2.44-.09-3.66 1.43-5.53 1.9q-7.82 1.93-13.39-4.29-2.97-6.04-2.39-13.5.05-.61-.56-.66l-2.27-.19q.66-1.94 2.92-1.76.5.03.67-.43l2.71-7.25c1.75-.83 3.25-3.37 4.97-3.53Z"/><path fill="#fff" d="m542.76 113.54-.62 7.16-1.99 13.01a.65.65 0 0 1-.64.54h-4.38q-.43 0-.41-.43l.04-1.31q.03-.87-.61-.28c-7.45 6.94-15.72-.23-11.83-9.06q3.23-5.85 11.45-5.13 1.95.21 2.19-.76c1.31-5.25-8.55-3.1-10.94-2.54l.45-4.71q.05-.51.53-.68c6.11-2.14 13.97-3.05 16.76 4.19Zm-14.8 13.05c-.03 2.83 2.84 2.87 4.59 2.05q2.73-2.27 2.39-5.04a.73.72-89 0 0-.59-.62q-5.59-1.02-6.39 3.61ZM560.89 108.27q-1.05 2.71-.58 5.72l-2.08.04c-2.93-.11-7.57-.91-6.67 3.15q4.3 2.08 7.36 5.44l-.57 8.25a1.12 1.1-17.4 0 1-.43.81q-6.11 4.75-14.27 2.63c-2.5-.65-1.84-3.72-1.22-5.69a.61.6 12.1 0 1 .65-.42l6.86.83q2.19-.24 2.94-2.2a.8.79 30.9 0 0-.23-.9c-4.55-3.78-10.7-4.84-7.68-12.7 2.13-6.21 10.16-5.73 15.92-4.96ZM594.18 115.16q.31 3.67-.88 7.97-.9.76-1.75.63-5.71-.02-11.3.11-.67.02-.45 1.8 3.22 5.89 13.05 1.66l-1.25 6.36q-8.78 2.79-14.35-1c-6.01-4.08-5.08-14.04-1.62-19.29 4.93-7.47 15.29-7.61 18.55 1.76ZM580.99 118l6.56.06a.3.3 0 0 0 .3-.29l.01-.34a3.44 2.82-89.4 0 0-2.79-3.47l-1.52-.02a3.44 2.82-89.4 0 0-2.85 3.41l-.01.34a.3.3 0 0 0 .3.31ZM651.51 114.6l-3.08 20.88q-.57-1.44-2.18-.99l-3.18-.21q-.57-.03-.57-.6v-.93q0-.63-.53-.28-3.5 2.39-5.48 2.5c-7 .38-9.3-7.46-5.92-12.48 3.15-4.95 6.77-3.6 11.19-5.08q.64.79 1.57.57.48-.11.59-.59c1.27-5.36-8.35-3.24-10.74-2.59q-.56.15-.43-.41.45-2.12-.14-3.7-.02-1.01 1.15-1.43c7.28-2.56 14.06-2.6 17.75 5.34Zm-15.3 10.34q-.73 1.72-.11 3.12.21.48.73.59 2.17.45 3.74-.14 2.07-2.09 2.5-4.6.11-.61-.5-.75-4.62-1.05-6.36 1.78ZM610.5 108.29l-2.71 7.25q-.17.46-.67.43-2.26-.18-2.92 1.76-2.15 7.02-3.2 15.77-.14 1.15-1.89.7l-4.49-.04q-.61 0-.52-.6l3.65-24.64q1.85-1.3 5.26-.66 1.62.3.9 1.91-.19.42.13.75l.25.24q.2.2.35-.03 2.19-3.33 5.86-2.84ZM665.34 112.91l-1.23 2.26q-.25.46-.75.62-2.75.87-3.38 3.99-1.93 6.11-2.48 12.72-.1 1.21-1.59 2.11l-4.86-.42q-.57-.05-.49-.62l3.31-23.86q-.06-1.54 1.89-1.52 2.1.03 4.28.41.53.1.41.62l-.44 1.99a.38.38 0 0 0 .66.32q1.38-1.76 3.18-2.84a1.41 1.4 80.7 0 1 2.09 1.51l-.6 2.71Z"/><path fill="#182725" d="M629.79 110.14q-.96 2.2-1.35 1.96-4.23-2.54-9.07-.93 4.44-4.63 10.42-1.03Z"/><path fill="#44243f" d="m597.75 108.92-3.65 24.64q-.09.6.52.6l4.49.04q-.61.83-.63 1.42-.01.37-.37.44-6.63 1.28-6.51-2.37l1.25-6.36q1.53-1.74.45-4.2 1.19-4.3.88-7.97l3.57-6.24Z"/><path fill="#182725" d="m653.87 109.71-3.31 23.86q-.08.57.49.62l4.86.42q-2.79 2.6-7.48.87l3.08-20.88q.53-5.42 2.36-4.89Z"/><path fill="#033365" d="M506.39 134.68q-2.51 2.2-6.32 1.06-.52-.15-.39-.68 1.13-4.66-.82-9.11l2.44-15.24a.1.1 0 0 1 .19.01l.67 22.88q.01.57.58.64l3.65.44Z"/><path fill="#182725" d="M632.61 110.69q.59 1.58.14 3.7-.13.56.43.41c2.39-.65 12.01-2.77 10.74 2.59q-.11.48-.59.59-.93.22-1.57-.57c-.99-2.77-8.38-1.36-10.44-.79q-.49.13-.45-.37.17-2.41.4-4.73.05-.58.39-.71.35-.13.95-.12ZM668.21 111.31q-6 7.03-3.92 16.69c1.31 6.07 7.92 9.43 12.76 4.85q.49-.47.73.17l.26.72q.18.48.69.52l4.64.4q-3.67 2.65-7.93.61-.42-.2-.82.03c-5.91 3.4-11.25.26-12.5-6.06q-1.06-5.37.93-10.84a.44.44 0 0 0-.32-.59q-1.13-.24-1.55.62-.6 1.25-1.2 1.35.63-3.12 3.38-3.99.5-.16.75-.62l1.23-2.26q1.66-1.72 2.87-1.6Z"/><path fill="#44243f" d="M516.8 134.41q-2.02 2.55-6.85 1.35-.5-.13-.35-.63 1.48-4.91.39-9.82l4.24-12.62a.34.34 0 0 1 .66.16l-3.19 20.66q-.1.66.57.69l4.53.21Z"/><path fill="#033365" d="M544.97 113.23c-3.02 7.86 3.13 8.92 7.68 12.7a.8.79 30.9 0 1 .23.9q-.75 1.96-2.94 2.2.35-.66.23-1.21-.1-.43-.74-.77-4.46-2.33-7.29-6.35l.62-7.16 2.21-.31Z"/><path fill="#346797" d="m82.36 113.12 3.28 4.53q-.2 1.9 1.28 5.08l-1.68.38q-.45.11-.56-.34l-2.32-9.65Z"/><path fill="#44243f" d="M533.77 118.04q.12-1.08-.22-1.71-.31-.58-1.33-.6-3.59-.1-7.13.61-.56.12-.57-.46-.01-.6.5-1.14c2.39-.56 12.25-2.71 10.94 2.54q-.24.97-2.19.76ZM558.23 114.03q.3 1.75-.98 1.72-3.44-.08-5.69 1.43c-.9-4.06 3.74-3.26 6.67-3.15Z"/><path fill="#eb1c24" d="m558.23 114.03 2.08-.04q.37 4.68-1.39 8.63-3.06-3.36-7.36-5.44 2.25-1.51 5.69-1.43 1.28.03.98-1.72Z"/><path fill="#44243f" d="M580.99 118a.3.3 0 0 1-.3-.31l.01-.34a3.44 2.82-89.4 0 1 2.85-3.41l1.52.02a3.44 2.82-89.4 0 1 2.79 3.47l-.01.34a.3.3 0 0 1-.3.29l-6.56-.06Z"/><path fill="#182725" d="M676.45 127.77c1.19-3.82 2.82-12.58-3.97-11.14 1.24-3.21 6.43-2.4 6.88 1.46q.72 6.15-2.91 9.68Z"/><path fill="#f8a61c" d="M676.45 127.77c-7.55 1.89-6.24-7.22-3.97-11.14 6.79-1.44 5.16 7.32 3.97 11.14Z"/><path fill="#44243f" d="M532.55 128.64q-.3-1.08-.04-1.33 1.82-1.73-.72-2.41a2.02 2.01-73.5 0 0-2.44 1.33q-.06.17-.1.36-.1.46-.56.42-.41-.03-.73-.42.8-4.63 6.39-3.61a.73.72-89 0 1 .59.62q.34 2.77-2.39 5.04Z"/><path fill="#182725" d="m640.57 128.51.3-3.13a.64.64 0 0 0-.68-.7l-3.98.26q1.74-2.83 6.36-1.78.61.14.5.75-.43 2.51-2.5 4.6Z"/><path fill="#eb1c24" d="M593.3 123.13q1.08 2.46-.45 4.2-9.83 4.23-13.05-1.66c2.87-.41 10.17.85 11.75-1.91q.85.13 1.75-.63Z"/><path fill="#44243f" d="M591.55 123.76c-1.58 2.76-8.88 1.5-11.75 1.91q-.22-1.78.45-1.8 5.59-.13 11.3-.11Z"/><path fill="#eb1c24" d="M532.55 128.64c-1.75.82-4.62.78-4.59-2.05q.32.39.73.42.46.04.56-.42.04-.19.1-.36a2.02 2.01-73.5 0 1 2.44-1.33q2.54.68.72 2.41-.26.25.04 1.33Z"/><path fill="#f8a61c" d="M640.57 128.51q-1.57.59-3.74.14-.52-.11-.73-.59-.62-1.4.11-3.12l3.98-.26a.64.64 0 0 1 .68.7l-.3 3.13Z"/><path fill="#cbd7de" d="M946.71 137.53c-7.02-.37-5.95-8.05-.72-9.89q5.45-1.92 11.46-1.83.55 0 .53.55c-.2 7.37-3.54 11.58-11.27 11.17ZM1089.99 130.22c2.6-3.85 10.35-4.51 14.6-4.19a.5.5 0 0 1 .46.54q-.2 2.31-.69 4.5c-2.14 9.56-20.53 8.26-14.37-.85ZM421.65 162.75l.29 38.75-.34-.02.05-38.73Z"/><path fill="#a8a6a8" d="M856.21 220.97c-10.34-4.19-12.11-11.68-12.19-22.65q-.1-15.29-.24-30.57.23-.16.5-.16.54 0 .53.55-.29 10.66-.27 33.34.01 13.03 11.67 19.49ZM.38 179.46l.31 14.05-.41-.01.1-14.04Z"/><path fill="#eb1c24" d="m.28 193.5.41.01c.26 12.64-.62 22.02 12.68 27.68q-.58.14-.27.37C-.06 215.7.16 206.3.28 193.5Z"/><path fill="#a8a6a8" d="m421.6 201.48.34.02.84 6.57-1.18-6.59ZM332.48 214.52q-5.66 8.3-15.73 8.32-160.05.45-295.75-.04-4.04-.02-7.9-1.24-.31-.23.27-.37 4 1.09 7.88 1.08c81.1-.22 162.15-.3 243.24-.28 14.66.01 34.56-.4 49.53.34q11.45.57 18.46-7.81ZM741.76 222.06q-.1.15.09.59c-12.23.59-26.55.29-37.12.3q-131.53.19-263.05-.1c-5.12-.01-8.98-1.57-12.52-4.82q6.6 4.16 9.9 4.15 132.6-.33 265.19.04c12.42.04 25.16.71 37.51-.16Z"/></svg>